<?xml version="1.0" encoding="UTF-8" standalone="no"?>
<!-- Created with Inkscape (http://www.inkscape.org/) -->

<svg
   xmlns:dc="http://purl.org/dc/elements/1.1/"
   xmlns:cc="http://creativecommons.org/ns#"
   xmlns:rdf="http://www.w3.org/1999/02/22-rdf-syntax-ns#"
   xmlns:svg="http://www.w3.org/2000/svg"
   xmlns="http://www.w3.org/2000/svg"
   xmlns:xlink="http://www.w3.org/1999/xlink"
   xmlns:sodipodi="http://sodipodi.sourceforge.net/DTD/sodipodi-0.dtd"
   xmlns:inkscape="http://www.inkscape.org/namespaces/inkscape"
   width="602.3136"
   height="128.00003"
   id="svg2"
   version="1.1"
   inkscape:version="0.92.3 (2405546, 2018-03-11)"
   sodipodi:docname="iHub_logo-fullname-stacked-small_hicolour@128px.svg"
   inkscape:export-filename="/home/alin/Design/Brands/iHub/Brand/png/iHub_icon-master_hicolour@128px.png"
   inkscape:export-xdpi="90"
   inkscape:export-ydpi="90">
  <defs
     id="defs4">
    <linearGradient
       inkscape:collect="always"
       id="linearGradient3882">
      <stop
         style="stop-color:#35514f;stop-opacity:1;"
         offset="0"
         id="stop3884" />
      <stop
         style="stop-color:#466b69;stop-opacity:1"
         offset="1"
         id="stop3886" />
    </linearGradient>
    <linearGradient
       inkscape:collect="always"
       id="linearGradient3824">
      <stop
         style="stop-color:#fcff5d;stop-opacity:1"
         offset="0"
         id="stop3826" />
      <stop
         style="stop-color:#ff8846;stop-opacity:1"
         offset="1"
         id="stop3828" />
    </linearGradient>
    <linearGradient
       inkscape:collect="always"
       id="linearGradient3816">
      <stop
         style="stop-color:#55bd7a;stop-opacity:1"
         offset="0"
         id="stop3818" />
      <stop
         style="stop-color:#5efa96;stop-opacity:1"
         offset="1"
         id="stop3820" />
    </linearGradient>
    <linearGradient
       id="linearGradient3793"
       inkscape:collect="always">
      <stop
         id="stop3795"
         offset="0"
         style="stop-color:#ff580a;stop-opacity:1" />
      <stop
         id="stop3797"
         offset="1"
         style="stop-color:#fe705a;stop-opacity:1" />
    </linearGradient>
    <linearGradient
       inkscape:collect="always"
       xlink:href="#linearGradient3793"
       id="linearGradient3814"
       x1="126.12076"
       y1="1043.3527"
       x2="160.22067"
       y2="975.67242"
       gradientUnits="userSpaceOnUse" />
    <linearGradient
       inkscape:collect="always"
       xlink:href="#linearGradient3882"
       id="linearGradient3908"
       gradientUnits="userSpaceOnUse"
       gradientTransform="matrix(0.86440825,0,0,0.86440825,145.63221,8.08739)"
       x1="-118.43305"
       y1="5.7780933"
       x2="-55.541393"
       y2="148.96722" />
    <linearGradient
       inkscape:collect="always"
       xlink:href="#linearGradient3816"
       id="linearGradient3911"
       gradientUnits="userSpaceOnUse"
       gradientTransform="matrix(0.86440825,0,0,0.86440825,-405.21239,558.90111)"
       x1="501.09921"
       y1="510.22379"
       x2="542.74628"
       y2="493.79523" />
    <linearGradient
       inkscape:collect="always"
       xlink:href="#linearGradient3882"
       id="linearGradient3917"
       gradientUnits="userSpaceOnUse"
       gradientTransform="matrix(0.93734441,0,0,0.93734441,139.10218,942.12206)"
       x1="-118.43305"
       y1="5.7780933"
       x2="-55.541393"
       y2="148.96722" />
    <linearGradient
       inkscape:collect="always"
       xlink:href="#linearGradient3816"
       id="linearGradient3920"
       gradientUnits="userSpaceOnUse"
       gradientTransform="matrix(0.93734441,0,0,0.93734441,-443.6676,522.0283)"
       x1="501.09921"
       y1="510.22379"
       x2="542.74628"
       y2="493.79523" />
    <radialGradient
       inkscape:collect="always"
       xlink:href="#linearGradient3824"
       id="radialGradient3923"
       gradientUnits="userSpaceOnUse"
       gradientTransform="matrix(1.2017755,0,0,1.2017755,-583.09783,383.15889)"
       cx="527.28387"
       cy="525.16302"
       fx="527.28387"
       fy="525.16302"
       r="51.136089" />
    <radialGradient
       inkscape:collect="always"
       xlink:href="#linearGradient3824"
       id="radialGradient3933"
       cx="63.900429"
       cy="988.36218"
       fx="63.900429"
       fy="988.36218"
       r="77.321426"
       gradientTransform="matrix(1.0323889,0,0,1.0323889,-15.391095,-18.154832)"
       gradientUnits="userSpaceOnUse" />
  </defs>
  <sodipodi:namedview
     id="base"
     pagecolor="#ffffff"
     bordercolor="#666666"
     borderopacity="1.0"
     inkscape:pageopacity="0.0"
     inkscape:pageshadow="2"
     inkscape:zoom="1.4"
     inkscape:cx="433.53902"
     inkscape:cy="12.366107"
     inkscape:document-units="px"
     inkscape:current-layer="layer1"
     showgrid="false"
     showguides="true"
     inkscape:guide-bbox="true"
     fit-margin-top="4"
     fit-margin-left="4"
     fit-margin-right="4"
     fit-margin-bottom="4"
     inkscape:window-width="1680"
     inkscape:window-height="1050"
     inkscape:window-x="0"
     inkscape:window-y="0"
     inkscape:window-maximized="0">
    <sodipodi:guide
       orientation="0,1"
       position="-235.07544,278.85723"
       id="guide3891"
       inkscape:locked="false" />
  </sodipodi:namedview>
  <metadata
     id="metadata7">
    <rdf:RDF>
      <cc:Work
         rdf:about="">
        <dc:format>image/svg+xml</dc:format>
        <dc:type
           rdf:resource="http://purl.org/dc/dcmitype/StillImage" />
        <dc:title />
      </cc:Work>
    </rdf:RDF>
  </metadata>
  <g
     inkscape:label="Layer 1"
     inkscape:groupmode="layer"
     id="layer1"
     transform="translate(1.3531285,-938.21936)">
    <path
       style="fill:url(#radialGradient3923);fill-opacity:1;stroke:none"
       d="m 98.511128,1014.287 c 0,26.4722 -21.459957,47.9321 -47.932129,47.9321 -26.472181,0 -47.9321275,-21.4599 -47.9321275,-47.9321 0,-26.47225 21.4599465,-47.9322 47.9321275,-47.9322 26.472172,0 47.932129,21.45995 47.932129,47.9322 z"
       id="path2990"
       inkscape:connector-curvature="0" />
    <path
       style="fill:url(#linearGradient3920);fill-opacity:1;stroke:none"
       d="m 49.779585,1038.5822 c 0,0 32.11237,0.2668 32.359369,-36.5989 0.167898,-25.04374 -32.359369,-56.73631 -32.359369,-56.73631 0,0 -30.761206,31.65246 -30.761206,56.73631 0,36.1646 30.761206,36.5989 30.761206,36.5989 z"
       inkscape:connector-curvature="0"
       sodipodi:nodetypes="cscsc"
       id="path3826" />
    <path
       inkscape:connector-curvature="0"
       d="m 46.861632,1062.0436 c 1.23378,0.095 2.461907,0.1758 3.720086,0.1758 0.772896,0 1.520841,-0.081 2.284777,-0.1172 l 0,-20.7387 c 3.327385,-0.392 8.887159,-1.5112 14.470254,-4.6575 8.8143,-4.9672 17.68019,-15.4048 17.809544,-34.7111 0.0927,-13.83252 -8.423905,-28.29948 -16.696448,-39.57347 -8.272542,-11.274 -16.579279,-19.33273 -16.579279,-19.33273 a 3.0083131,3.0083131 0 0 0 -2.460529,-0.84947 3.0083131,3.0083131 0 0 0 -1.786813,0.90805 c 0,0 -7.857777,8.06513 -15.700519,19.33273 -7.842742,11.2676 -15.905563,25.71412 -15.905563,39.48569 0,18.9352 8.411279,29.372 16.842908,34.4474 5.435941,3.2722 10.822447,4.4551 14.001582,4.8918 l 0,20.7387 z m 2.987785,-112.39349 c 2.408404,2.4613 7.537524,7.85494 13.767246,16.34494 7.949112,10.83322 15.599933,24.73017 15.524767,35.94125 -0.117645,17.5596 -7.430245,25.4106 -14.733882,29.5265 -4.390662,2.4743 -8.742874,3.4479 -11.541053,3.8372 l 0,-12.742 a 3.0086808,3.0086808 0 0 0 -3.04637,-3.0757 3.0086808,3.0086808 0 0 0 -2.958493,3.0757 l 0,12.6834 c -2.658037,-0.4419 -6.753538,-1.4898 -10.896629,-3.9837 -6.948975,-4.1829 -13.942998,-12.0625 -13.942998,-29.292 0,-11.31233 7.313189,-25.22894 14.851051,-36.05853 5.865254,-8.42655 10.664045,-13.75869 12.976362,-16.25706 z m 0.410088,43.82085 c -8.958444,-0.17712 -17.589324,4.9223 -21.471045,13.59154 a 3.0083131,3.0083131 0 1 0 5.477606,2.4605 c 3.846927,-8.5915 13.84619,-12.40024 22.437682,-8.5532 3.716393,1.664 6.70864,4.6022 8.4361,8.2895 a 3.0083131,3.0083131 0 1 0 5.448314,-2.5483 c -2.338796,-4.9923 -6.392323,-8.99524 -11.423885,-11.24818 -2.889729,-1.29391 -5.918627,-1.93282 -8.904772,-1.99186 z m -0.205044,9.72494 c -5.168461,-0.098 -10.155414,2.8292 -12.390521,7.821 a 3.0083131,3.0083131 0 1 0 5.477606,2.4606 c 1.651461,-3.6883 5.890198,-5.2837 9.578489,-3.6323 1.587683,0.711 2.894191,1.9691 3.632209,3.5444 a 3.0083131,3.0083131 0 1 0 5.419023,-2.5777 c -1.349355,-2.8803 -3.687832,-5.1738 -6.590702,-6.4736 -1.663919,-0.745 -3.403282,-1.1096 -5.126103,-1.1424 z"
       style="color:#000000;font-style:normal;font-variant:normal;font-weight:normal;font-stretch:normal;font-size:medium;line-height:normal;font-family:Sans;-inkscape-font-specification:Sans;text-indent:0;text-align:start;text-decoration:none;text-decoration-line:none;letter-spacing:normal;word-spacing:normal;text-transform:none;direction:ltr;block-progression:tb;writing-mode:lr-tb;baseline-shift:baseline;text-anchor:start;display:inline;overflow:visible;visibility:visible;fill:url(#linearGradient3917);fill-opacity:1;stroke:none;stroke-width:6.16807938;marker:none;enable-background:accumulate"
       id="path3785" />
    <g
       aria-label="Inquiry Hub"
       style="font-style:normal;font-variant:normal;font-weight:bold;font-stretch:normal;line-height:0%;font-family:Quicksand;-inkscape-font-specification:'Quicksand, Bold';text-align:start;letter-spacing:0px;word-spacing:0px;writing-mode:lr-tb;text-anchor:start;fill:#375452;fill-opacity:1;stroke:none;stroke-width:1px;stroke-linecap:butt;stroke-linejoin:miter;stroke-opacity:1"
       id="text3356">
      <path
         d="m 117.78004,989.96661 c 0,1.67663 1.29804,2.97467 2.97467,2.97467 1.62255,0 3.02876,-1.29804 3.02876,-2.97467 v -31.91015 c 0,-1.67664 -1.40621,-2.97468 -3.02876,-2.97468 -1.67663,0 -2.97467,1.29804 -2.97467,2.97468 z"
         style="font-style:normal;font-variant:normal;font-weight:bold;font-stretch:normal;font-size:54.0850029px;line-height:125%;font-family:Quicksand;-inkscape-font-specification:'Quicksand, Bold';text-align:start;writing-mode:lr-tb;text-anchor:start;fill:#375452;fill-opacity:1"
         id="path870" />
      <path
         d="m 144.53521,965.89878 c -2.10931,0 -4.11046,0.64902 -5.73301,1.67664 -0.48676,-1.02762 -1.51438,-1.67664 -2.65016,-1.67664 -1.62255,0 -2.86651,1.29804 -2.86651,2.86651 v 8.38317 c 0,0 0,0 0,0 v 12.92632 c 0,1.56846 1.24396,2.8665 2.86651,2.8665 1.40621,0 2.59608,-1.02761 2.8665,-2.32565 0.10817,-0.21634 0.10817,-0.3786 0.10817,-0.54085 v -12.92632 c 0,-3.02876 2.37974,-5.46258 5.4085,-5.46258 3.08285,0 5.62484,2.43382 5.62484,5.46258 v 12.92632 c 0,1.56846 1.35213,2.8665 2.86651,2.8665 1.56846,0 2.81242,-1.29804 2.81242,-2.8665 v -12.92632 c 0,-6.1116 -5.02991,-11.24968 -11.30377,-11.24968 z"
         style="font-style:normal;font-variant:normal;font-weight:bold;font-stretch:normal;font-size:54.0850029px;line-height:125%;font-family:Quicksand;-inkscape-font-specification:'Quicksand, Bold';text-align:start;writing-mode:lr-tb;text-anchor:start;fill:#375452;fill-opacity:1"
         id="path872" />
      <path
         d="m 188.03477,1003.0552 c 1.62255,0 2.92059,-1.3521 2.92059,-2.8665 v -20.71458 c 0,0 0,0 0,-0.0541 0,0 0,0 0,0 v -10.60066 c 0,-1.62255 -1.29804,-2.92059 -2.92059,-2.92059 -1.46029,0 -2.65016,1.02762 -2.8665,2.27157 -2.10932,-1.35212 -4.59723,-2.27157 -7.35556,-2.27157 -7.30148,0 -13.14266,6.11161 -13.14266,13.52125 0,7.46373 5.84118,13.52125 13.14266,13.52125 2.70425,0 5.19216,-0.86536 7.24739,-2.27157 v 9.51899 c 0,1.5144 1.29804,2.8665 2.97467,2.8665 z m -5.19216,-28.98958 c 1.40621,1.29804 2.21749,3.29918 2.21749,5.35441 0,2.21749 -0.81128,4.16455 -2.21749,5.46259 -1.24395,1.51438 -3.08284,2.27157 -5.0299,2.27157 -1.89298,0 -3.67778,-0.75719 -5.08399,-2.27157 -1.29804,-1.29804 -2.21749,-3.2451 -2.21749,-5.46259 0,-2.05523 0.91945,-4.05637 2.21749,-5.35441 1.40621,-1.4603 3.19101,-2.32566 5.08399,-2.32566 1.94706,0 3.78595,0.86536 5.0299,2.32566 z"
         style="font-style:normal;font-variant:normal;font-weight:bold;font-stretch:normal;font-size:54.0850029px;line-height:125%;font-family:Quicksand;-inkscape-font-specification:'Quicksand, Bold';text-align:start;writing-mode:lr-tb;text-anchor:start;fill:#375452;fill-opacity:1"
         id="path874" />
      <path
         d="m 224.28017,981.6916 v -12.92631 c 0,-1.51438 -1.40621,-2.86651 -2.92059,-2.86651 -1.62255,0 -2.81242,1.35213 -2.81242,2.86651 v 12.92631 c -0.0541,3.08285 -2.54199,5.51667 -5.67892,5.51667 -3.08285,0 -5.51667,-2.43382 -5.51667,-5.51667 v -12.92631 c 0,-1.51438 -1.24396,-2.86651 -2.86651,-2.86651 -1.56846,0 -2.8665,1.35213 -2.8665,2.86651 v 12.92631 c 0,6.16569 5.08399,11.24968 11.24968,11.24968 6.21977,0 11.41193,-5.08399 11.41193,-11.24968 z"
         style="font-style:normal;font-variant:normal;font-weight:bold;font-stretch:normal;font-size:54.0850029px;line-height:125%;font-family:Quicksand;-inkscape-font-specification:'Quicksand, Bold';text-align:start;writing-mode:lr-tb;text-anchor:start;fill:#375452;fill-opacity:1"
         id="path876" />
      <path
         d="m 238.3034,965.95287 c -1.62255,0 -2.92059,1.24395 -2.92059,2.97467 v 21.09315 c 0,1.62255 1.29804,2.92059 2.92059,2.92059 1.67664,0 2.92059,-1.29804 2.92059,-2.92059 v -21.09315 c 0,-1.73072 -1.24395,-2.97467 -2.92059,-2.97467 z m 2.92059,-7.9505 c 0,-1.62255 -1.24395,-2.92059 -2.92059,-2.92059 -1.62255,0 -2.92059,1.29804 -2.92059,2.92059 v 1.13579 c 0,1.62255 1.29804,2.97467 2.92059,2.97467 1.67664,0 2.92059,-1.35212 2.92059,-2.97467 z"
         style="font-style:normal;font-variant:normal;font-weight:bold;font-stretch:normal;font-size:54.0850029px;line-height:125%;font-family:Quicksand;-inkscape-font-specification:'Quicksand, Bold';text-align:start;writing-mode:lr-tb;text-anchor:start;fill:#375452;fill-opacity:1"
         id="path878" />
      <path
         d="m 264.33181,965.95287 c -2.70425,-0.0541 -5.0299,0.91944 -6.81471,2.10931 -0.37859,0.27043 -0.81127,0.70311 -1.13578,1.0817 v -0.37859 c 0,-1.56847 -1.35213,-2.81242 -2.97468,-2.81242 -1.56846,0 -2.8665,1.24395 -2.8665,2.81242 v 21.30949 c 0,1.56846 1.29804,2.8665 2.8665,2.8665 1.62255,0 2.97468,-1.29804 2.97468,-2.8665 v -10.27615 c 0.27042,-0.75719 0.91944,-2.81242 2.21748,-4.54314 0.64902,-1.02762 1.4603,-1.94706 2.48791,-2.59608 0.91945,-0.70311 2.00115,-1.02762 3.2451,-1.02762 1.62255,0 2.86651,-1.35212 2.86651,-2.8665 0,-1.56847 -1.24396,-2.81242 -2.86651,-2.81242 z"
         style="font-style:normal;font-variant:normal;font-weight:bold;font-stretch:normal;font-size:54.0850029px;line-height:125%;font-family:Quicksand;-inkscape-font-specification:'Quicksand, Bold';text-align:start;writing-mode:lr-tb;text-anchor:start;fill:#375452;fill-opacity:1"
         id="path880" />
      <path
         d="m 291.77741,965.89878 c -1.62255,0 -2.81242,1.24396 -2.81242,2.86651 v 12.76406 c 0,3.13693 -2.48791,5.51667 -5.57075,5.51667 -3.08285,0 -5.62484,-2.37974 -5.62484,-5.51667 v -12.76406 c 0,-1.62255 -1.18987,-2.86651 -2.86651,-2.86651 -1.46029,0 -2.81242,1.24396 -2.81242,2.86651 v 12.76406 c 0,6.21977 5.08399,11.35785 11.30377,11.35785 1.7848,0 3.62369,-0.43268 5.13807,-1.29804 -0.86536,2.81242 -3.56961,4.86765 -6.76062,4.92173 -1.0817,0 -2.10932,-0.27042 -3.13693,-0.75719 -1.29804,-0.7031 -3.13693,-0.10817 -3.84004,1.18987 -0.64902,1.51438 -0.10817,3.19103 1.40621,3.84003 1.62255,0.8113 3.6237,1.3521 5.57076,1.3521 7.1933,0 12.92631,-5.67889 12.92631,-12.92628 v -7.68007 c 0,0 0,0 0,0 v -12.76406 c 0,-1.62255 -1.35212,-2.86651 -2.92059,-2.86651 z"
         style="font-style:normal;font-variant:normal;font-weight:bold;font-stretch:normal;font-size:54.0850029px;line-height:125%;font-family:Quicksand;-inkscape-font-specification:'Quicksand, Bold';text-align:start;writing-mode:lr-tb;text-anchor:start;fill:#375452;fill-opacity:1"
         id="path882" />
      <path
         d="m 325.94138,992.94128 c 1.67664,0 3.02876,-1.29804 3.02876,-2.97467 v -12.9804 h 14.00802 v 12.9804 c 0,1.67663 1.29804,2.97467 2.97467,2.97467 1.67664,0 3.02876,-1.29804 3.02876,-2.97467 v -31.91015 c 0,-1.67664 -1.35212,-2.97468 -3.02876,-2.97468 -1.67663,0 -2.97467,1.29804 -2.97467,2.97468 v 12.9804 h -14.00802 v -12.9804 c 0,-1.67664 -1.35212,-2.97468 -3.02876,-2.97468 -1.67663,0 -2.97467,1.29804 -2.97467,2.97468 v 31.91015 c 0,1.67663 1.29804,2.97467 2.97467,2.97467 z"
         style="font-style:normal;font-variant:normal;font-weight:bold;font-stretch:normal;font-size:54.0850029px;line-height:125%;font-family:Quicksand;-inkscape-font-specification:'Quicksand, Bold';text-align:start;writing-mode:lr-tb;text-anchor:start;fill:#375452;fill-opacity:1"
         id="path884" />
      <path
         d="m 382.83797,981.6916 v -12.92631 c 0,-1.51438 -1.40621,-2.86651 -2.92059,-2.86651 -1.62255,0 -2.81242,1.35213 -2.81242,2.86651 v 12.92631 c -0.0541,3.08285 -2.542,5.51667 -5.67893,5.51667 -3.08285,0 -5.51667,-2.43382 -5.51667,-5.51667 v -12.92631 c 0,-1.51438 -1.24396,-2.86651 -2.86651,-2.86651 -1.56846,0 -2.8665,1.35213 -2.8665,2.86651 v 12.92631 c 0,6.16569 5.08399,11.24968 11.24968,11.24968 6.21978,0 11.41194,-5.08399 11.41194,-11.24968 z"
         style="font-style:normal;font-variant:normal;font-weight:bold;font-stretch:normal;font-size:54.0850029px;line-height:125%;font-family:Quicksand;-inkscape-font-specification:'Quicksand, Bold';text-align:start;writing-mode:lr-tb;text-anchor:start;fill:#375452;fill-opacity:1"
         id="path886" />
      <path
         d="m 393.88653,990.02069 c 0,1.56847 1.29804,2.92059 2.92059,2.92059 1.46029,0 2.59608,-1.02761 2.8665,-2.32565 2.05523,1.40621 4.65131,2.32565 7.35556,2.32565 7.30148,0 13.14266,-6.16569 13.14266,-13.46716 0,-7.40965 -5.84118,-13.57534 -13.14266,-13.57534 -2.65016,0 -5.24624,0.86536 -7.24739,2.27157 v -10.16798 c 0,-1.56846 -1.29804,-2.92059 -2.97467,-2.92059 -1.62255,0 -2.92059,1.35213 -2.92059,2.92059 v 21.41766 c 0,0 0,0 0,0.0541 0,0 0,0 0,0 z m 8.05866,-16.00916 c 1.35213,-1.40621 3.08285,-2.21748 5.08399,-2.21748 1.94706,0 3.73187,0.81127 5.08399,2.21748 1.35213,1.35213 2.1634,3.29919 2.1634,5.46259 0,2.05523 -0.81127,4.00229 -2.1634,5.35441 -1.35212,1.40621 -3.13693,2.21749 -5.08399,2.21749 -2.00114,0 -3.73186,-0.81128 -5.08399,-2.21749 -1.35212,-1.35212 -2.1634,-3.29918 -2.1634,-5.35441 0,-2.1634 0.81128,-4.11046 2.1634,-5.46259 z"
         style="font-style:normal;font-variant:normal;font-weight:bold;font-stretch:normal;font-size:54.0850029px;line-height:125%;font-family:Quicksand;-inkscape-font-specification:'Quicksand, Bold';text-align:start;writing-mode:lr-tb;text-anchor:start;fill:#375452;fill-opacity:1"
         id="path888" />
    </g>
    <g
       aria-label="Secondary School"
       style="font-style:normal;font-variant:normal;font-weight:bold;font-stretch:normal;line-height:0%;font-family:Quicksand;-inkscape-font-specification:'Quicksand, Bold';text-align:start;letter-spacing:0px;word-spacing:0px;writing-mode:lr-tb;text-anchor:start;fill:#375452;fill-opacity:1;stroke:none;stroke-width:1px;stroke-linecap:butt;stroke-linejoin:miter;stroke-opacity:1"
       id="text3360">
      <path
         d="m 116.64425,1045.3359 c 3.08285,2.4338 8.00458,5.3544 13.84576,5.4085 3.84004,0 7.35557,-1.1358 10.00573,-3.0829 2.70425,-1.947 4.65131,-4.9217 4.65131,-8.3831 0,-1.6767 -0.48676,-3.2992 -1.29804,-4.5973 -1.24395,-2.0011 -3.19101,-3.4073 -5.4085,-4.489 -2.1634,-1.0276 -4.7054,-1.7307 -7.46373,-2.2716 h -0.10817 c -2.92059,-0.5408 -5.35442,-1.4062 -6.76063,-2.3797 -0.7031,-0.4868 -1.18987,-0.9736 -1.46029,-1.4062 -0.27043,-0.4327 -0.3786,-0.8654 -0.3786,-1.5144 0,-1.1358 0.59494,-2.3257 2.05523,-3.4074 1.4603,-1.0817 3.6237,-1.8389 6.05752,-1.8389 3.29919,0 5.94936,1.6226 8.70769,3.4615 1.29804,0.8653 3.02876,0.4867 3.84004,-0.8113 0.86536,-1.244 0.48676,-2.9747 -0.75719,-3.84 -2.75834,-1.7848 -6.59838,-4.3268 -11.79054,-4.3268 -3.51552,0 -6.81471,1.0276 -9.3567,2.8665 -2.48791,1.8389 -4.3268,4.6513 -4.3268,7.8964 0,1.6225 0.43268,3.1369 1.24395,4.4349 1.18987,1.893 2.97468,3.2451 5.02991,4.2187 2.05523,0.9735 4.43497,1.6225 6.97696,2.1093 h 0.10817 c 3.19102,0.5949 5.84118,1.5144 7.40965,2.542 0.81128,0.5408 1.29804,1.0817 1.62255,1.6225 0.32451,0.5409 0.48677,1.0277 0.48677,1.7308 0,1.3521 -0.70311,2.7042 -2.32566,3.8941 -1.62255,1.1898 -4.05638,2.0011 -6.76063,2.0011 -3.84003,0.054 -7.95049,-2.2175 -10.33023,-4.1645 -1.18987,-0.9736 -2.97468,-0.8113 -3.94821,0.3786 -0.91944,1.1898 -0.75719,2.9746 0.43268,3.9482 z"
         style="font-style:normal;font-variant:normal;font-weight:bold;font-stretch:normal;font-size:54.0850029px;line-height:125%;font-family:Quicksand;-inkscape-font-specification:'Quicksand, Bold';text-align:start;writing-mode:lr-tb;text-anchor:start;fill:#375452;fill-opacity:1"
         id="path839" />
      <path
         d="m 164.23737,1050.7985 c 3.84003,0 7.03105,-1.1358 9.68121,-3.5696 1.24396,-1.1358 0.70311,-2.7584 0,-3.5156 -0.7031,-0.8653 -2.92059,-1.0276 -4.05637,0.1623 -1.35213,1.0276 -3.67778,1.5144 -5.62484,1.3521 -1.89298,-0.1622 -4.05638,-1.1358 -5.19217,-2.4338 -0.97353,-0.9195 -1.56846,-2.3257 -1.83889,-3.5696 h 17.19904 c 1.51438,0 2.65016,-0.8654 2.81242,-2.1634 0.0541,-0.1082 0.0541,-0.3786 0.0541,-0.4868 0,0 0,0 0,0 0,0 0,0 0,0 0,-0.1082 0,-0.2163 0,-0.2704 -0.43268,-7.3015 -6.00343,-12.5477 -13.03448,-12.5477 -7.40965,0 -13.14266,6.1657 -13.19675,13.5212 0.0541,7.3556 5.7871,13.4672 13.19675,13.5213 z m 0,-21.9045 c 4.70539,0.3786 7.46373,3.5696 8.00458,5.733 h -15.30606 c 0.43268,-2.2174 2.70425,-5.5166 7.30148,-5.733 z"
         style="font-style:normal;font-variant:normal;font-weight:bold;font-stretch:normal;font-size:54.0850029px;line-height:125%;font-family:Quicksand;-inkscape-font-specification:'Quicksand, Bold';text-align:start;writing-mode:lr-tb;text-anchor:start;fill:#375452;fill-opacity:1"
         id="path841" />
      <path
         d="m 197.73627,1050.7985 c 0,0 0,0 0,0 3.2451,0 6.27386,-1.1899 8.59951,-2.8665 1.24396,-1.0817 1.4603,-2.8125 0.59494,-4.0023 -1.0817,-1.2981 -2.86651,-1.5144 -4.05638,-0.595 -1.40621,1.0276 -3.19101,1.7308 -5.13807,1.7308 -4.38089,0 -8.00458,-3.5697 -8.00458,-7.7342 0,-4.1645 3.62369,-7.7882 8.00458,-7.7882 2.00114,0 3.73186,0.7031 5.13807,1.7307 1.24396,0.9735 2.97468,0.7572 4.05638,-0.5409 0.86536,-1.1898 0.64902,-3.0287 -0.59494,-4.0023 -2.32565,-1.7848 -5.35441,-2.9746 -8.59951,-2.9746 -7.46373,0.054 -13.73759,6.0575 -13.73759,13.5753 0,7.4096 6.27386,13.4672 13.73759,13.4672 z"
         style="font-style:normal;font-variant:normal;font-weight:bold;font-stretch:normal;font-size:54.0850029px;line-height:125%;font-family:Quicksand;-inkscape-font-specification:'Quicksand, Bold';text-align:start;writing-mode:lr-tb;text-anchor:start;fill:#375452;fill-opacity:1"
         id="path843" />
      <path
         d="m 227.68246,1050.9607 c 0,0 0,0 0,0 3.56961,0 6.81471,-1.5684 9.03219,-4.1104 2.43383,-2.3798 3.78595,-5.7331 3.78595,-9.519 0,-3.6778 -1.35212,-6.8688 -3.78595,-9.4649 -2.21748,-2.542 -5.46258,-4.1104 -9.03219,-4.1104 -3.73187,0 -6.8688,1.5684 -9.30262,4.1104 -2.32566,2.5961 -3.73187,5.7871 -3.73187,9.4649 0,3.7859 1.40621,7.1392 3.73187,9.519 2.43382,2.542 5.57075,4.1104 9.30262,4.1104 z m -5.19216,-19.2542 c 1.35212,-1.1899 3.13693,-2.0553 5.19216,-2.0553 1.89297,0 3.62369,0.8654 4.97582,2.0553 1.35212,1.4603 2.10931,3.4073 2.10931,5.6248 0,2.3257 -0.75719,4.2186 -2.10931,5.733 -1.35213,1.298 -3.08285,2.0012 -4.97582,2.0012 -2.05523,0 -3.84004,-0.7032 -5.19216,-2.0012 -1.24396,-1.5144 -1.94706,-3.4073 -1.94706,-5.733 0,-2.2175 0.7031,-4.1645 1.94706,-5.6248 z"
         style="font-style:normal;font-variant:normal;font-weight:bold;font-stretch:normal;font-size:54.0850029px;line-height:125%;font-family:Quicksand;-inkscape-font-specification:'Quicksand, Bold';text-align:start;writing-mode:lr-tb;text-anchor:start;fill:#375452;fill-opacity:1"
         id="path845" />
      <path
         d="m 260.94474,1023.756 c -2.10932,0 -4.11046,0.649 -5.73301,1.6766 -0.48677,-1.0276 -1.51438,-1.6766 -2.65017,-1.6766 -1.62255,0 -2.8665,1.298 -2.8665,2.8665 v 8.3831 c 0,0 0,0 0,0 v 12.9264 c 0,1.5684 1.24395,2.8665 2.8665,2.8665 1.40621,0 2.59608,-1.0277 2.86651,-2.3257 0.10817,-0.2163 0.10817,-0.3786 0.10817,-0.5408 v -12.9264 c 0,-3.0287 2.37974,-5.4625 5.4085,-5.4625 3.08284,0 5.62484,2.4338 5.62484,5.4625 v 12.9264 c 0,1.5684 1.35212,2.8665 2.8665,2.8665 1.56847,0 2.81242,-1.2981 2.81242,-2.8665 v -12.9264 c 0,-6.1116 -5.0299,-11.2496 -11.30376,-11.2496 z"
         style="font-style:normal;font-variant:normal;font-weight:bold;font-stretch:normal;font-size:54.0850029px;line-height:125%;font-family:Quicksand;-inkscape-font-specification:'Quicksand, Bold';text-align:start;writing-mode:lr-tb;text-anchor:start;fill:#375452;fill-opacity:1"
         id="path847" />
      <path
         d="m 306.30853,1037.3313 c 0,0 0,0 0,0 0,-0.054 0,-0.054 0,-0.054 v -21.4176 c 0,-1.5685 -1.29804,-2.9206 -2.92059,-2.9206 -1.67664,0 -2.97468,1.3521 -2.97468,2.9206 v 10.1679 c -2.00114,-1.4062 -4.59722,-2.2715 -7.24739,-2.2715 -7.30148,0 -13.14266,6.1657 -13.14266,13.5753 0,7.3015 5.84118,13.4672 13.14266,13.4672 2.70425,0 5.30033,-0.9195 7.35556,-2.3257 0.27043,1.298 1.40621,2.3257 2.86651,2.3257 1.62255,0 2.92059,-1.3522 2.92059,-2.9206 z m -8.05867,-5.4626 c 1.35213,1.3521 2.1634,3.2992 2.1634,5.4626 0,2.0552 -0.81127,4.0023 -2.1634,5.3544 -1.35212,1.4062 -3.08284,2.2175 -5.08399,2.2175 -1.94706,0 -3.73187,-0.8113 -5.08399,-2.2175 -1.35213,-1.3521 -2.1634,-3.2992 -2.1634,-5.3544 0,-2.1634 0.81127,-4.1105 2.1634,-5.4626 1.35212,-1.4062 3.13693,-2.2175 5.08399,-2.2175 2.00115,0 3.73187,0.8113 5.08399,2.2175 z"
         style="font-style:normal;font-variant:normal;font-weight:bold;font-stretch:normal;font-size:54.0850029px;line-height:125%;font-family:Quicksand;-inkscape-font-specification:'Quicksand, Bold';text-align:start;writing-mode:lr-tb;text-anchor:start;fill:#375452;fill-opacity:1"
         id="path849" />
      <path
         d="m 340.39054,1026.6766 c 0,-1.6226 -1.29804,-2.9206 -2.86651,-2.9206 -1.40621,0 -2.48791,1.0276 -2.81242,2.3797 -2.05523,-1.4603 -4.48906,-2.3797 -7.19331,-2.3797 -3.67778,0 -6.86879,1.5684 -9.19445,4.0563 -2.32565,2.4339 -3.67778,5.7871 -3.67778,9.519 0,3.6778 1.35213,7.031 3.67778,9.519 2.32566,2.4338 5.51667,3.9482 9.19445,3.9482 0,0 0,0 0,0 2.70425,0 5.13808,-0.8654 7.19331,-2.3257 0.32451,1.298 1.40621,2.3257 2.81242,2.3257 1.56847,0 2.86651,-1.2981 2.86651,-2.8665 v -10.6007 c 0,0 0,0 0,0 0,0 0,0 0,0 z m -7.84233,16.2255 c -1.29804,1.3521 -3.13693,2.1093 -5.02991,2.1093 -1.94706,0 -3.78595,-0.7572 -5.0299,-2.1093 -1.29804,-1.4063 -2.05523,-3.3533 -2.05523,-5.5708 0,-2.2716 0.75719,-4.2186 2.05523,-5.5708 1.24395,-1.4603 3.08284,-2.2174 5.0299,-2.2174 1.89298,0 3.73187,0.7571 5.02991,2.2174 1.29804,1.3522 2.10931,3.2992 2.10931,5.5708 0,2.2175 -0.81127,4.1645 -2.10931,5.5708 z"
         style="font-style:normal;font-variant:normal;font-weight:bold;font-stretch:normal;font-size:54.0850029px;line-height:125%;font-family:Quicksand;-inkscape-font-specification:'Quicksand, Bold';text-align:start;writing-mode:lr-tb;text-anchor:start;fill:#375452;fill-opacity:1"
         id="path851" />
      <path
         d="m 364.79048,1023.81 c -2.70425,-0.054 -5.02991,0.9195 -6.81471,2.1094 -0.3786,0.2704 -0.81128,0.7031 -1.13579,1.0817 v -0.3786 c 0,-1.5685 -1.35212,-2.8125 -2.97467,-2.8125 -1.56847,0 -2.86651,1.244 -2.86651,2.8125 v 21.3095 c 0,1.5684 1.29804,2.8665 2.86651,2.8665 1.62255,0 2.97467,-1.2981 2.97467,-2.8665 v -10.2762 c 0.27043,-0.7572 0.91945,-2.8124 2.21749,-4.5431 0.64902,-1.0276 1.46029,-1.9471 2.48791,-2.5961 0.91944,-0.7031 2.00114,-1.0276 3.2451,-1.0276 1.62255,0 2.8665,-1.3522 2.8665,-2.8665 0,-1.5685 -1.24395,-2.8125 -2.8665,-2.8125 z"
         style="font-style:normal;font-variant:normal;font-weight:bold;font-stretch:normal;font-size:54.0850029px;line-height:125%;font-family:Quicksand;-inkscape-font-specification:'Quicksand, Bold';text-align:start;writing-mode:lr-tb;text-anchor:start;fill:#375452;fill-opacity:1"
         id="path853" />
      <path
         d="m 392.23608,1023.756 c -1.62255,0 -2.81242,1.2439 -2.81242,2.8665 v 12.764 c 0,3.137 -2.48791,5.5167 -5.57076,5.5167 -3.08284,0 -5.62484,-2.3797 -5.62484,-5.5167 v -12.764 c 0,-1.6226 -1.18987,-2.8665 -2.8665,-2.8665 -1.4603,0 -2.81242,1.2439 -2.81242,2.8665 v 12.764 c 0,6.2198 5.08399,11.3579 11.30376,11.3579 1.78481,0 3.6237,-0.4327 5.13808,-1.2981 -0.86536,2.8125 -3.56961,4.8677 -6.76063,4.9218 -1.0817,0 -2.10931,-0.2705 -3.13693,-0.7572 -1.29804,-0.7031 -3.13693,-0.1082 -3.84003,1.1899 -0.64902,1.5143 -0.10817,3.191 1.40621,3.84 1.62255,0.8113 3.62369,1.3521 5.57075,1.3521 7.19331,0 12.92632,-5.6789 12.92632,-12.9263 v -7.6801 c 0,0 0,0 0,0 v -12.764 c 0,-1.6226 -1.35213,-2.8665 -2.92059,-2.8665 z"
         style="font-style:normal;font-variant:normal;font-weight:bold;font-stretch:normal;font-size:54.0850029px;line-height:125%;font-family:Quicksand;-inkscape-font-specification:'Quicksand, Bold';text-align:start;writing-mode:lr-tb;text-anchor:start;fill:#375452;fill-opacity:1"
         id="path855" />
      <path
         d="m 422.66818,1045.3359 c 3.08284,2.4338 8.00458,5.3544 13.84576,5.4085 3.84004,0 7.35556,-1.1358 10.00573,-3.0829 2.70425,-1.947 4.65131,-4.9217 4.65131,-8.3831 0,-1.6767 -0.48677,-3.2992 -1.29804,-4.5973 -1.24396,-2.0011 -3.19102,-3.4073 -5.4085,-4.489 -2.1634,-1.0276 -4.7054,-1.7307 -7.46373,-2.2716 h -0.10817 c -2.92059,-0.5408 -5.35442,-1.4062 -6.76063,-2.3797 -0.7031,-0.4868 -1.18987,-0.9736 -1.46029,-1.4062 -0.27043,-0.4327 -0.3786,-0.8654 -0.3786,-1.5144 0,-1.1358 0.59494,-2.3257 2.05523,-3.4074 1.4603,-1.0817 3.6237,-1.8389 6.05752,-1.8389 3.29919,0 5.94935,1.6226 8.70769,3.4615 1.29804,0.8653 3.02876,0.4867 3.84003,-0.8113 0.86536,-1.244 0.48677,-2.9747 -0.75719,-3.84 -2.75833,-1.7848 -6.59837,-4.3268 -11.79053,-4.3268 -3.51552,0 -6.81471,1.0276 -9.35671,2.8665 -2.48791,1.8389 -4.3268,4.6513 -4.3268,7.8964 0,1.6225 0.43268,3.1369 1.24396,4.4349 1.18987,1.893 2.97467,3.2451 5.02991,4.2187 2.05523,0.9735 4.43497,1.6225 6.97696,2.1093 h 0.10817 c 3.19102,0.5949 5.84118,1.5144 7.40965,2.542 0.81127,0.5408 1.29804,1.0817 1.62255,1.6225 0.32451,0.5409 0.48676,1.0277 0.48676,1.7308 0,1.3521 -0.7031,2.7042 -2.32565,3.8941 -1.62255,1.1898 -4.05638,2.0011 -6.76063,2.0011 -3.84003,0.054 -7.95049,-2.2175 -10.33024,-4.1645 -1.18987,-0.9736 -2.97467,-0.8113 -3.9482,0.3786 -0.91945,1.1898 -0.75719,2.9746 0.43268,3.9482 z"
         style="font-style:normal;font-variant:normal;font-weight:bold;font-stretch:normal;font-size:54.0850029px;line-height:125%;font-family:Quicksand;-inkscape-font-specification:'Quicksand, Bold';text-align:start;writing-mode:lr-tb;text-anchor:start;fill:#375452;fill-opacity:1"
         id="path857" />
      <path
         d="m 470.80216,1050.7985 c 0,0 0,0 0,0 3.2451,0 6.27386,-1.1899 8.59951,-2.8665 1.24396,-1.0817 1.4603,-2.8125 0.59494,-4.0023 -1.0817,-1.2981 -2.86651,-1.5144 -4.05638,-0.595 -1.40621,1.0276 -3.19101,1.7308 -5.13807,1.7308 -4.38089,0 -8.00458,-3.5697 -8.00458,-7.7342 0,-4.1645 3.62369,-7.7882 8.00458,-7.7882 2.00114,0 3.73186,0.7031 5.13807,1.7307 1.24396,0.9735 2.97468,0.7572 4.05638,-0.5409 0.86536,-1.1898 0.64902,-3.0287 -0.59494,-4.0023 -2.32565,-1.7848 -5.35441,-2.9746 -8.59951,-2.9746 -7.46373,0.054 -13.73759,6.0575 -13.73759,13.5753 0,7.4096 6.27386,13.4672 13.73759,13.4672 z"
         style="font-style:normal;font-variant:normal;font-weight:bold;font-stretch:normal;font-size:54.0850029px;line-height:125%;font-family:Quicksand;-inkscape-font-specification:'Quicksand, Bold';text-align:start;writing-mode:lr-tb;text-anchor:start;fill:#375452;fill-opacity:1"
         id="path859" />
      <path
         d="m 495.80631,1035.6006 c 0.0541,-3.191 2.59608,-5.7871 5.7871,-5.8412 3.2451,0.054 5.84118,2.6502 5.84118,5.8412 v 12.2232 c 0,1.6766 1.29804,2.9747 2.97467,2.9747 1.67664,0 2.97468,-1.2981 2.97468,-2.9747 v -12.2232 c 0,-6.4902 -5.24625,-11.8446 -11.79053,-11.8446 -2.10932,0 -4.05638,0.649 -5.7871,1.5684 v -9.4108 c 0,-1.6766 -1.35212,-2.9746 -3.02876,-2.9746 -1.62255,0 -2.97467,1.298 -2.97467,2.9746 v 31.9102 c 0,0.2704 0.0541,0.5408 0.10817,0.7572 0.37859,1.2439 1.51438,2.2175 2.8665,2.2175 1.67664,0 3.02876,-1.2981 3.02876,-2.9747 z"
         style="font-style:normal;font-variant:normal;font-weight:bold;font-stretch:normal;font-size:54.0850029px;line-height:125%;font-family:Quicksand;-inkscape-font-specification:'Quicksand, Bold';text-align:start;writing-mode:lr-tb;text-anchor:start;fill:#375452;fill-opacity:1"
         id="path861" />
      <path
         d="m 534.76275,1050.9607 c 0,0 0,0 0,0 3.56961,0 6.81471,-1.5684 9.0322,-4.1104 2.43382,-2.3798 3.78595,-5.7331 3.78595,-9.519 0,-3.6778 -1.35213,-6.8688 -3.78595,-9.4649 -2.21749,-2.542 -5.46259,-4.1104 -9.0322,-4.1104 -3.73187,0 -6.8688,1.5684 -9.30262,4.1104 -2.32566,2.5961 -3.73187,5.7871 -3.73187,9.4649 0,3.7859 1.40621,7.1392 3.73187,9.519 2.43382,2.542 5.57075,4.1104 9.30262,4.1104 z m -5.19216,-19.2542 c 1.35212,-1.1899 3.13693,-2.0553 5.19216,-2.0553 1.89298,0 3.6237,0.8654 4.97582,2.0553 1.35213,1.4603 2.10932,3.4073 2.10932,5.6248 0,2.3257 -0.75719,4.2186 -2.10932,5.733 -1.35212,1.298 -3.08284,2.0012 -4.97582,2.0012 -2.05523,0 -3.84004,-0.7032 -5.19216,-2.0012 -1.24396,-1.5144 -1.94706,-3.4073 -1.94706,-5.733 0,-2.2175 0.7031,-4.1645 1.94706,-5.6248 z"
         style="font-style:normal;font-variant:normal;font-weight:bold;font-stretch:normal;font-size:54.0850029px;line-height:125%;font-family:Quicksand;-inkscape-font-specification:'Quicksand, Bold';text-align:start;writing-mode:lr-tb;text-anchor:start;fill:#375452;fill-opacity:1"
         id="path863" />
      <path
         d="m 568.56585,1050.9607 c 0,0 0,0 0,0 3.56961,0 6.81471,-1.5684 9.0322,-4.1104 2.43382,-2.3798 3.78595,-5.7331 3.78595,-9.519 0,-3.6778 -1.35213,-6.8688 -3.78595,-9.4649 -2.21749,-2.542 -5.46259,-4.1104 -9.0322,-4.1104 -3.73186,0 -6.86879,1.5684 -9.30262,4.1104 -2.32565,2.5961 -3.73187,5.7871 -3.73187,9.4649 0,3.7859 1.40622,7.1392 3.73187,9.519 2.43383,2.542 5.57076,4.1104 9.30262,4.1104 z m -5.19216,-19.2542 c 1.35213,-1.1899 3.13693,-2.0553 5.19216,-2.0553 1.89298,0 3.6237,0.8654 4.97582,2.0553 1.35213,1.4603 2.10932,3.4073 2.10932,5.6248 0,2.3257 -0.75719,4.2186 -2.10932,5.733 -1.35212,1.298 -3.08284,2.0012 -4.97582,2.0012 -2.05523,0 -3.84003,-0.7032 -5.19216,-2.0012 -1.24395,-1.5144 -1.94706,-3.4073 -1.94706,-5.733 0,-2.2175 0.70311,-4.1645 1.94706,-5.6248 z"
         style="font-style:normal;font-variant:normal;font-weight:bold;font-stretch:normal;font-size:54.0850029px;line-height:125%;font-family:Quicksand;-inkscape-font-specification:'Quicksand, Bold';text-align:start;writing-mode:lr-tb;text-anchor:start;fill:#375452;fill-opacity:1"
         id="path865" />
      <path
         d="m 590.95705,1015.9136 v 31.9102 c 0,1.6225 1.35212,2.9747 2.97467,2.9747 1.67664,0 3.02876,-1.3522 3.02876,-2.9747 v -31.9102 c 0,-1.6225 -1.35212,-2.9746 -3.02876,-2.9746 -1.62255,0 -2.97467,1.3521 -2.97467,2.9746 z"
         style="font-style:normal;font-variant:normal;font-weight:bold;font-stretch:normal;font-size:54.0850029px;line-height:125%;font-family:Quicksand;-inkscape-font-specification:'Quicksand, Bold';text-align:start;writing-mode:lr-tb;text-anchor:start;fill:#375452;fill-opacity:1"
         id="path867" />
    </g>
  </g>
</svg>
