<?xml version="1.0" encoding="UTF-8" standalone="no"?>
<!-- Created with Inkscape (http://www.inkscape.org/) -->

<svg
   xmlns:dc="http://purl.org/dc/elements/1.1/"
   xmlns:cc="http://creativecommons.org/ns#"
   xmlns:rdf="http://www.w3.org/1999/02/22-rdf-syntax-ns#"
   xmlns:svg="http://www.w3.org/2000/svg"
   xmlns="http://www.w3.org/2000/svg"
   xmlns:xlink="http://www.w3.org/1999/xlink"
   xmlns:sodipodi="http://sodipodi.sourceforge.net/DTD/sodipodi-0.dtd"
   xmlns:inkscape="http://www.inkscape.org/namespaces/inkscape"
   width="602.3515"
   height="136.00005"
   id="svg2"
   version="1.1"
   inkscape:version="0.92.3 (2405546, 2018-03-11)"
   sodipodi:docname="iHub_logo-fullname-stacked_hicolour@128px.svg"
   inkscape:export-filename="/home/alin_k/Design/Brands/iHub/Brand/png/iHub_icon-master_hicolour@128px.png"
   inkscape:export-xdpi="180"
   inkscape:export-ydpi="180">
  <defs
     id="defs4">
    <linearGradient
       inkscape:collect="always"
       id="linearGradient3882">
      <stop
         style="stop-color:#35514f;stop-opacity:1;"
         offset="0"
         id="stop3884" />
      <stop
         style="stop-color:#466b69;stop-opacity:1"
         offset="1"
         id="stop3886" />
    </linearGradient>
    <linearGradient
       inkscape:collect="always"
       id="linearGradient3824">
      <stop
         style="stop-color:#fcff5d;stop-opacity:1"
         offset="0"
         id="stop3826" />
      <stop
         style="stop-color:#ff8846;stop-opacity:1"
         offset="1"
         id="stop3828" />
    </linearGradient>
    <linearGradient
       inkscape:collect="always"
       id="linearGradient3816">
      <stop
         style="stop-color:#55bd7a;stop-opacity:1"
         offset="0"
         id="stop3818" />
      <stop
         style="stop-color:#5efa96;stop-opacity:1"
         offset="1"
         id="stop3820" />
    </linearGradient>
    <linearGradient
       id="linearGradient3793"
       inkscape:collect="always">
      <stop
         id="stop3795"
         offset="0"
         style="stop-color:#ff580a;stop-opacity:1" />
      <stop
         id="stop3797"
         offset="1"
         style="stop-color:#fe705a;stop-opacity:1" />
    </linearGradient>
    <linearGradient
       inkscape:collect="always"
       xlink:href="#linearGradient3793"
       id="linearGradient3814"
       x1="126.12076"
       y1="1043.3527"
       x2="160.22067"
       y2="975.67242"
       gradientUnits="userSpaceOnUse" />
    <linearGradient
       inkscape:collect="always"
       xlink:href="#linearGradient3882"
       id="linearGradient3908"
       gradientUnits="userSpaceOnUse"
       gradientTransform="matrix(0.86440825,0,0,0.86440825,145.63221,8.08739)"
       x1="-118.43305"
       y1="5.7780933"
       x2="-55.541393"
       y2="148.96722" />
    <linearGradient
       inkscape:collect="always"
       xlink:href="#linearGradient3816"
       id="linearGradient3911"
       gradientUnits="userSpaceOnUse"
       gradientTransform="matrix(0.86440825,0,0,0.86440825,-405.21239,558.90111)"
       x1="501.09921"
       y1="510.22379"
       x2="542.74628"
       y2="493.79523" />
    <linearGradient
       inkscape:collect="always"
       xlink:href="#linearGradient3882"
       id="linearGradient3917"
       gradientUnits="userSpaceOnUse"
       gradientTransform="matrix(0.93734441,0,0,0.93734441,139.10218,942.12205)"
       x1="-118.43305"
       y1="5.7780933"
       x2="-55.541393"
       y2="148.96722" />
    <linearGradient
       inkscape:collect="always"
       xlink:href="#linearGradient3816"
       id="linearGradient3920"
       gradientUnits="userSpaceOnUse"
       gradientTransform="matrix(0.93734441,0,0,0.93734441,-443.6676,522.02829)"
       x1="501.09921"
       y1="510.22379"
       x2="542.74628"
       y2="493.79523" />
    <radialGradient
       inkscape:collect="always"
       xlink:href="#linearGradient3824"
       id="radialGradient3923"
       gradientUnits="userSpaceOnUse"
       gradientTransform="matrix(1.2017755,0,0,1.2017755,-583.09783,383.15888)"
       cx="527.28387"
       cy="525.16302"
       fx="527.28387"
       fy="525.16302"
       r="51.136089" />
    <radialGradient
       inkscape:collect="always"
       xlink:href="#linearGradient3824"
       id="radialGradient3933"
       cx="63.900429"
       cy="988.36218"
       fx="63.900429"
       fy="988.36218"
       r="77.321426"
       gradientTransform="matrix(1.0323889,0,0,1.0323889,-15.391095,-18.154832)"
       gradientUnits="userSpaceOnUse" />
    <linearGradient
       inkscape:collect="always"
       xlink:href="#linearGradient3882"
       id="linearGradient3785"
       x1="145.46196"
       y1="18.903526"
       x2="220.71832"
       y2="18.903526"
       gradientUnits="userSpaceOnUse" />
  </defs>
  <sodipodi:namedview
     id="base"
     pagecolor="#ffffff"
     bordercolor="#666666"
     borderopacity="1.0"
     inkscape:pageopacity="0.0"
     inkscape:pageshadow="2"
     inkscape:zoom="0.98994949"
     inkscape:cx="577.01058"
     inkscape:cy="-91.914276"
     inkscape:document-units="px"
     inkscape:current-layer="layer1"
     showgrid="false"
     showguides="true"
     inkscape:guide-bbox="true"
     fit-margin-top="8"
     fit-margin-left="8"
     fit-margin-right="8"
     fit-margin-bottom="8"
     inkscape:window-width="1680"
     inkscape:window-height="1050"
     inkscape:window-x="0"
     inkscape:window-y="0"
     inkscape:window-maximized="0" />
  <metadata
     id="metadata7">
    <rdf:RDF>
      <cc:Work
         rdf:about="">
        <dc:format>image/svg+xml</dc:format>
        <dc:type
           rdf:resource="http://purl.org/dc/dcmitype/StillImage" />
        <dc:title></dc:title>
      </cc:Work>
    </rdf:RDF>
  </metadata>
  <g
     inkscape:label="Layer 1"
     inkscape:groupmode="layer"
     id="layer1"
     transform="translate(5.3531285,-934.21935)">
    <path
       style="fill:url(#radialGradient3923);fill-opacity:1;stroke:none"
       d="m 98.511128,1014.287 c 0,26.4722 -21.459957,47.9321 -47.932129,47.9321 -26.472181,0 -47.9321275,-21.4599 -47.9321275,-47.9321 0,-26.47226 21.4599465,-47.93221 47.9321275,-47.93221 26.472172,0 47.932129,21.45995 47.932129,47.93221 z"
       id="path2990"
       inkscape:connector-curvature="0" />
    <path
       style="fill:url(#linearGradient3920);fill-opacity:1;stroke:none"
       d="m 49.779585,1038.5822 c 0,0 32.11237,0.2668 32.359369,-36.5989 0.167898,-25.04375 -32.359369,-56.73632 -32.359369,-56.73632 0,0 -30.761206,31.65246 -30.761206,56.73632 0,36.1646 30.761206,36.5989 30.761206,36.5989 z"
       inkscape:connector-curvature="0"
       sodipodi:nodetypes="cscsc"
       id="path3826" />
    <path
       inkscape:connector-curvature="0"
       d="m 46.861632,1062.0436 c 1.23378,0.095 2.461907,0.1758 3.720086,0.1758 0.772896,0 1.520841,-0.081 2.284777,-0.1172 v -20.7387 c 3.327385,-0.392 8.887159,-1.5112 14.470254,-4.6575 8.8143,-4.9672 17.68019,-15.4048 17.809544,-34.7111 0.0927,-13.83253 -8.423905,-28.29949 -16.696448,-39.57348 -8.272542,-11.274 -16.579279,-19.33273 -16.579279,-19.33273 a 3.0083131,3.0083131 0 0 0 -2.460529,-0.84947 3.0083131,3.0083131 0 0 0 -1.786813,0.90805 c 0,0 -7.857777,8.06513 -15.700519,19.33273 -7.842742,11.2676 -15.905563,25.71412 -15.905563,39.4857 0,18.9352 8.411279,29.372 16.842908,34.4474 5.435941,3.2722 10.822447,4.4551 14.001582,4.8918 z m 2.987785,-112.3935 c 2.408404,2.4613 7.537524,7.85494 13.767246,16.34494 7.949112,10.83322 15.599933,24.73017 15.524767,35.94126 -0.117645,17.5596 -7.430245,25.4106 -14.733882,29.5265 -4.390662,2.4743 -8.742874,3.4479 -11.541053,3.8372 v -12.742 a 3.0086808,3.0086808 0 0 0 -3.04637,-3.0757 3.0086808,3.0086808 0 0 0 -2.958493,3.0757 v 12.6834 c -2.658037,-0.4419 -6.753538,-1.4898 -10.896629,-3.9837 -6.948975,-4.1829 -13.942998,-12.0625 -13.942998,-29.292 0,-11.31234 7.313189,-25.22895 14.851051,-36.05854 5.865254,-8.42655 10.664045,-13.75869 12.976362,-16.25706 z m 0.410088,43.82085 c -8.958444,-0.17712 -17.589324,4.9223 -21.471045,13.59155 a 3.0083131,3.0083131 0 1 0 5.477606,2.4605 c 3.846927,-8.5915 13.84619,-12.40025 22.437682,-8.5532 3.716393,1.664 6.70864,4.6022 8.4361,8.2895 a 3.0083131,3.0083131 0 1 0 5.448314,-2.5483 c -2.338796,-4.9923 -6.392323,-8.99525 -11.423885,-11.24819 -2.889729,-1.29391 -5.918627,-1.93282 -8.904772,-1.99186 z m -0.205044,9.72495 c -5.168461,-0.098 -10.155414,2.8292 -12.390521,7.821 a 3.0083131,3.0083131 0 1 0 5.477606,2.4606 c 1.651461,-3.6883 5.890198,-5.2837 9.578489,-3.6323 1.587683,0.711 2.894191,1.9691 3.632209,3.5444 a 3.0083131,3.0083131 0 1 0 5.419023,-2.5777 c -1.349355,-2.8803 -3.687832,-5.1738 -6.590702,-6.4736 -1.663919,-0.745 -3.403282,-1.1096 -5.126103,-1.1424 z"
       style="color:#000000;font-style:normal;font-variant:normal;font-weight:normal;font-stretch:normal;font-size:medium;line-height:normal;font-family:Sans;-inkscape-font-specification:Sans;text-indent:0;text-align:start;text-decoration:none;text-decoration-line:none;letter-spacing:normal;word-spacing:normal;text-transform:none;writing-mode:lr-tb;direction:ltr;baseline-shift:baseline;text-anchor:start;display:inline;overflow:visible;visibility:visible;fill:url(#linearGradient3917);fill-opacity:1;stroke:none;stroke-width:6.16807938;marker:none;enable-background:accumulate"
       id="path3785" />
    <g
       aria-label="Inquiry Hub
Secondary School"
       style="font-style:normal;font-variant:normal;font-weight:normal;font-stretch:normal;font-size:8.41026402px;line-height:0%;font-family:Quicksand;-inkscape-font-specification:Quicksand;letter-spacing:0px;word-spacing:0px;fill:#375452;fill-opacity:1;stroke:#375452;stroke-width:1.61196733;stroke-miterlimit:4;stroke-dasharray:none;stroke-opacity:1"
       id="text3005">
      <path
         d="m 128.52947,981.60769 c 0,0.67922 0.57473,1.25394 1.25395,1.25394 0.73147,0 1.30619,-0.57472 1.30619,-1.25394 V 947.5422 c 0,-0.67922 -0.57472,-1.25395 -1.30619,-1.25395 -0.67922,0 -1.25395,0.57473 -1.25395,1.25395 z"
         style="font-size:52.24768448px;line-height:1.25;fill:#375452;fill-opacity:1;stroke:#375452;stroke-width:1.61196733;stroke-miterlimit:4;stroke-dasharray:none;stroke-opacity:1"
         id="path842" />
      <path
         d="m 161.79492,981.60769 c 0,0.73147 0.57473,1.25394 1.25395,1.25394 0.67922,0 1.25394,-0.52247 1.25394,-1.25394 V 967.7098 c 0,-5.69499 -4.65004,-10.39728 -10.39729,-10.39728 -3.18711,0 -6.06073,1.46293 -7.94165,3.70958 v -2.45564 c 0,-0.67922 -0.52247,-1.25394 -1.20169,-1.25394 -0.73147,0 -1.25395,0.57472 -1.25395,1.25394 v 8.72536 0.41798 13.89789 0.31348 c 0,0 0.0523,0.0523 0.0523,0.1045 0,0.0522 0,0.1045 0.0522,0.15674 0.15674,0.31349 0.47023,0.57473 0.83596,0.67922 h 0.31349 c 0.36573,0 0.73146,-0.15674 0.94045,-0.47023 0.15675,-0.15674 0.20899,-0.36573 0.26124,-0.57472 v -0.20899 -13.89789 c 0.1045,-4.33655 3.60509,-7.8894 7.94165,-7.8894 4.38881,0 7.8894,3.55285 7.8894,7.8894 z"
         style="font-size:52.24768448px;line-height:1.25;fill:#375452;fill-opacity:1;stroke:#375452;stroke-width:1.61196733;stroke-miterlimit:4;stroke-dasharray:none;stroke-opacity:1"
         id="path844" />
      <path
         d="m 195.92735,992.31846 c 0,0.67922 0.57473,1.25395 1.25395,1.25395 0.78371,0 1.30619,-0.57473 1.30619,-1.25395 v -21.83953 -0.52247 -0.52248 -10.91977 c 0,-0.67922 -0.52248,-1.25394 -1.30619,-1.25394 -0.67922,0 -1.25395,0.57472 -1.25395,1.25394 v 3.76184 c -2.24665,-3.03037 -5.79949,-5.01578 -9.82256,-5.01578 -6.73995,0 -12.27821,5.695 -12.27821,12.69619 0,6.94894 5.53826,12.74843 12.27821,12.80068 4.02307,0 7.57591,-2.03766 9.82256,-5.06803 z m -19.54063,-22.362 c 0,-5.695 4.38881,-10.13606 9.71807,-10.13606 5.43376,0 9.82256,4.44106 9.82256,10.13606 0,5.64275 -4.3888,10.18829 -9.82256,10.24054 -5.32926,-0.0522 -9.71807,-4.59779 -9.71807,-10.24054 z"
         style="font-size:52.24768448px;line-height:1.25;fill:#375452;fill-opacity:1;stroke:#375452;stroke-width:1.61196733;stroke-miterlimit:4;stroke-dasharray:none;stroke-opacity:1"
         id="path846" />
      <path
         d="m 209.51992,972.4121 c 0,5.74724 4.59779,10.44953 10.34504,10.44953 5.85174,0 10.50178,-4.70229 10.50178,-10.44953 v -13.95014 c 0,-0.73146 -0.57472,-1.25394 -1.30619,-1.25394 -0.62697,0 -1.25395,0.52248 -1.25395,1.25394 v 13.95014 c 0,4.3888 -3.55284,7.8894 -7.94164,7.94164 -4.33656,-0.0522 -7.83716,-3.55284 -7.83716,-7.94164 v -13.95014 c 0,-0.73146 -0.57472,-1.25394 -1.25394,-1.25394 -0.67922,0 -1.25394,0.52248 -1.25394,1.25394 z"
         style="font-size:52.24768448px;line-height:1.25;fill:#375452;fill-opacity:1;stroke:#375452;stroke-width:1.61196733;stroke-miterlimit:4;stroke-dasharray:none;stroke-opacity:1"
         id="path848" />
      <path
         d="m 242.13717,981.60769 c 0,0.67922 0.57472,1.25394 1.25394,1.25394 0.73147,0 1.30619,-0.57472 1.30619,-1.25394 v -23.09348 c 0,-0.73147 -0.57472,-1.25394 -1.30619,-1.25394 -0.67922,0 -1.25394,0.52247 -1.25394,1.25394 z m 0,-30.25141 c 0,0.73147 0.57472,1.35844 1.25394,1.35844 0.73147,0 1.30619,-0.62697 1.30619,-1.35844 v -1.2017 c 0,-0.67922 -0.57472,-1.25394 -1.30619,-1.25394 -0.67922,0 -1.25394,0.57472 -1.25394,1.25394 z"
         style="font-size:52.24768448px;line-height:1.25;fill:#375452;fill-opacity:1;stroke:#375452;stroke-width:1.61196733;stroke-miterlimit:4;stroke-dasharray:none;stroke-opacity:1"
         id="path850" />
      <path
         d="m 256.77958,981.60769 c 0,0.73147 0.57473,1.25394 1.30619,1.25394 0.62698,0 1.2017,-0.52247 1.2017,-1.25394 v -11.23325 c 0,-0.1045 0,-0.20899 0.1045,-0.41798 0.36573,-1.04496 1.35844,-3.65734 3.08261,-5.95624 1.77642,-2.2989 4.07532,-4.17982 7.41917,-4.17982 0.67922,0 1.25395,-0.57472 1.25395,-1.25394 0,-0.73147 -0.57473,-1.25394 -1.25395,-1.25394 -4.91128,0 -8.30738,3.23935 -10.24055,6.26972 -0.15674,0.20899 -0.26123,0.41798 -0.36573,0.62697 v -5.64275 c 0,-0.73147 -0.57472,-1.25394 -1.2017,-1.25394 -0.73146,0 -1.30619,0.52247 -1.30619,1.25394 z"
         style="font-size:52.24768448px;line-height:1.25;fill:#375452;fill-opacity:1;stroke:#375452;stroke-width:1.61196733;stroke-miterlimit:4;stroke-dasharray:none;stroke-opacity:1"
         id="path852" />
      <path
         d="m 277.59783,972.35985 c 0,5.74724 4.65004,10.39729 10.34504,10.44954 3.18711,0 6.00849,-1.46294 7.94165,-3.65734 v 1.67192 c -0.0523,5.27702 -4.33656,9.50908 -9.66582,9.50908 -1.46294,0 -2.92587,-0.36573 -4.17982,-0.9927 -0.62697,-0.15675 -1.30619,0 -1.61967,0.62697 -0.31349,0.57472 -0.0523,1.30619 0.52247,1.67192 1.61968,0.73147 3.3961,1.2017 5.27702,1.2017 6.73995,0 12.17371,-5.32926 12.17371,-12.01697 v -7.99389 -0.47023 -13.89789 c 0,-0.15674 -0.0522,-0.36573 -0.15674,-0.52247 -0.0523,-0.15675 -0.20899,-0.31349 -0.31349,-0.41798 -0.20899,-0.1045 -0.41798,-0.20899 -0.62697,-0.26124 h -0.15675 -0.15674 c -0.0523,0 -0.10449,0.0522 -0.15674,0.0522 h -0.1045 c -0.15674,0.0522 -0.36573,0.15674 -0.47023,0.31348 -0.0522,0 -0.0522,0.0523 -0.10449,0.0523 0,0.0522 -0.0523,0.10449 -0.0523,0.15674 -0.15674,0.15675 -0.20899,0.41798 -0.20899,0.62697 v 13.89789 c -0.0523,4.3888 -3.55284,7.8894 -7.94165,7.8894 -4.33656,0 -7.83715,-3.5006 -7.83715,-7.8894 v -13.89789 c 0,-0.67922 -0.57473,-1.20169 -1.30619,-1.20169 -0.62697,0 -1.2017,0.52247 -1.2017,1.20169 z"
         style="font-size:52.24768448px;line-height:1.25;fill:#375452;fill-opacity:1;stroke:#375452;stroke-width:1.61196733;stroke-miterlimit:4;stroke-dasharray:none;stroke-opacity:1"
         id="path854" />
      <path
         d="m 348.11506,981.60769 c 0,0.67922 0.57472,1.25394 1.25394,1.25394 0.73147,0 1.3062,-0.57472 1.3062,-1.25394 V 947.5422 c 0,-0.67922 -0.57473,-1.25395 -1.3062,-1.25395 -0.67922,0 -1.25394,0.57473 -1.25394,1.25395 v 15.7788 h -18.80917 v -15.7788 c 0,-0.67922 -0.57472,-1.25395 -1.30619,-1.25395 -0.67922,0 -1.25394,0.57473 -1.25394,1.25395 v 34.06549 c 0,0.67922 0.57472,1.25394 1.25394,1.25394 0.73147,0 1.30619,-0.57472 1.30619,-1.25394 v -15.7788 h 18.80917 z"
         style="font-size:52.24768448px;line-height:1.25;fill:#375452;fill-opacity:1;stroke:#375452;stroke-width:1.61196733;stroke-miterlimit:4;stroke-dasharray:none;stroke-opacity:1"
         id="path856" />
      <path
         d="m 362.69136,972.4121 c 0,5.74724 4.59779,10.44953 10.34504,10.44953 5.85174,0 10.50178,-4.70229 10.50178,-10.44953 v -13.95014 c 0,-0.73146 -0.57472,-1.25394 -1.30619,-1.25394 -0.62697,0 -1.25395,0.52248 -1.25395,1.25394 v 13.95014 c 0,4.3888 -3.55284,7.8894 -7.94164,7.94164 -4.33656,-0.0522 -7.83716,-3.55284 -7.83716,-7.94164 v -13.95014 c 0,-0.73146 -0.57472,-1.25394 -1.25394,-1.25394 -0.67922,0 -1.25394,0.52248 -1.25394,1.25394 z"
         style="font-size:52.24768448px;line-height:1.25;fill:#375452;fill-opacity:1;stroke:#375452;stroke-width:1.61196733;stroke-miterlimit:4;stroke-dasharray:none;stroke-opacity:1"
         id="path858" />
      <path
         d="m 395.25634,981.60769 c 0,0.67922 0.57473,1.25394 1.25395,1.25394 0.73147,0 1.30619,-0.57472 1.30619,-1.25394 v -3.70959 c 2.24665,3.03037 5.79949,4.96353 9.82256,4.96353 6.8967,0 12.38271,-5.74724 12.38271,-12.74843 0,-7.10569 -5.48601,-12.85293 -12.38271,-12.85293 -4.02307,0 -7.57591,1.98541 -9.82256,5.01578 V 947.5422 c 0,-0.67922 -0.57472,-1.25395 -1.30619,-1.25395 -0.67922,0 -1.25395,0.57473 -1.25395,1.25395 v 22.04852 0.52248 0.52248 z m 2.56014,-11.91247 c 0.20899,-5.48601 4.54555,-9.87482 9.82256,-9.87482 5.43376,0 9.82257,4.5978 9.82257,10.2928 0,5.64275 -4.38881,10.1883 -9.82257,10.1883 -5.38151,0 -9.82256,-4.54555 -9.82256,-10.1883 z"
         style="font-size:52.24768448px;line-height:1.25;fill:#375452;fill-opacity:1;stroke:#375452;stroke-width:1.61196733;stroke-miterlimit:4;stroke-dasharray:none;stroke-opacity:1"
         id="path860" />
      <path
         d="m 126.64856,1042.9465 c 3.03036,2.4034 7.8894,5.2247 13.4799,5.277 3.65734,0 6.94894,-1.0972 9.40458,-2.8736 2.45564,-1.7765 4.12757,-4.3888 4.12757,-7.3147 0,-2.9259 -1.61968,-5.3293 -4.02307,-6.8967 -2.4034,-1.6197 -5.64275,-2.6646 -9.30009,-3.3439 h -0.1045 c -3.2916,-0.6269 -6.00848,-1.5151 -7.83715,-2.7691 -1.82867,-1.2539 -2.66463,-2.6124 -2.71688,-4.441 0,-1.881 1.04496,-3.6574 2.87363,-5.0158 1.82866,-1.3062 4.4933,-2.1944 7.47141,-2.1944 4.02308,0 7.15794,1.9854 10.03156,3.8663 0.52248,0.3657 1.25394,0.209 1.56743,-0.3135 0.36573,-0.5747 0.20899,-1.2539 -0.31349,-1.6197 -2.87362,-1.8809 -6.47871,-4.232 -11.2855,-4.232 -3.44834,0 -6.53096,0.9927 -8.82985,2.6646 -2.2989,1.6719 -3.81409,4.0753 -3.81409,6.8445 0,2.7168 1.51519,4.9112 3.76184,6.3742 2.24665,1.5152 5.22477,2.4556 8.62087,3.0826 h 0.10449 c 3.55284,0.6792 6.47871,1.6719 8.46413,2.9781 1.98541,1.3585 2.97811,2.9259 2.97811,5.0158 0,2.0376 -1.0972,3.9708 -3.13486,5.4337 -1.98541,1.463 -4.85903,2.4034 -8.04614,2.4034 -4.75454,0.052 -9.30009,-2.5078 -12.01697,-4.7023 -0.47023,-0.4179 -1.20169,-0.3657 -1.61968,0.1568 -0.36573,0.4702 -0.31348,1.2017 0.15675,1.6197 z"
         style="font-size:52.24768448px;line-height:1.25;fill:#375452;fill-opacity:1;stroke:#375452;stroke-width:1.61196733;stroke-miterlimit:4;stroke-dasharray:none;stroke-opacity:1"
         id="path862" />
      <path
         d="m 173.09512,1048.1712 c 4.33656,0 8.15064,-2.2989 10.34504,-5.7995 0.36573,-0.6269 0.15674,-1.3584 -0.41798,-1.7764 -0.52248,-0.3135 -1.30619,-0.209 -1.67193,0.418 -1.72417,2.8736 -4.85903,4.6501 -8.25513,4.6501 -5.27702,0 -9.66582,-4.2321 -9.92706,-9.8226 h 21.00357 c 0.67922,0 1.25394,-0.4702 1.25394,-1.1495 v -0.1567 -0.052 c -0.52248,-6.6877 -5.74724,-11.9124 -12.33045,-11.9124 -6.8967,0 -12.43495,5.7472 -12.43495,12.8529 0,7.0012 5.53825,12.7484 12.43495,12.7484 z m 0,-23.0934 c 4.70229,0 8.77761,3.5006 9.61357,8.3073 H 163.3248 c 0.94046,-4.859 4.96353,-8.3073 9.77032,-8.3073 z"
         style="font-size:52.24768448px;line-height:1.25;fill:#375452;fill-opacity:1;stroke:#375452;stroke-width:1.61196733;stroke-miterlimit:4;stroke-dasharray:none;stroke-opacity:1"
         id="path864" />
      <path
         d="m 205.66501,1048.1712 c 0,0 0,0 0,0 3.03037,0 5.90399,-1.0449 8.04615,-2.7168 0.62697,-0.4703 0.73146,-1.254 0.26124,-1.8287 -0.41799,-0.4702 -1.14945,-0.627 -1.72418,-0.209 -1.82867,1.4107 -4.12757,2.2467 -6.58321,2.2467 -5.95623,0 -10.65852,-4.5978 -10.65852,-10.3451 0,-5.6427 4.70229,-10.2928 10.65852,-10.2928 2.45564,0 4.75454,0.836 6.58321,2.2989 0.57473,0.418 1.30619,0.2613 1.72418,-0.209 0.47022,-0.5747 0.36573,-1.3584 -0.15675,-1.7242 -2.24665,-1.7764 -5.12027,-2.8213 -8.15064,-2.8213 -7.31467,0 -13.16641,5.6427 -13.16641,12.7484 0,7.2102 5.85174,12.8529 13.16641,12.8529 z"
         style="font-size:52.24768448px;line-height:1.25;fill:#375452;fill-opacity:1;stroke:#375452;stroke-width:1.61196733;stroke-miterlimit:4;stroke-dasharray:none;stroke-opacity:1"
         id="path866" />
      <path
         d="m 222.10671,1035.3706 c 0,6.9489 5.43376,12.8006 12.12146,12.8006 6.73995,0 12.12146,-5.8517 12.12146,-12.8006 0,-6.949 -5.38151,-12.8007 -12.12146,-12.8007 -6.6877,0 -12.12146,5.8517 -12.12146,12.8007 z m 2.50789,0 c 0,-5.695 4.3888,-10.3451 9.61357,-10.3451 5.22477,0 9.61358,4.6501 9.61358,10.3451 0,5.695 -4.38881,10.2928 -9.61358,10.2928 -5.22477,0 -9.61357,-4.5978 -9.61357,-10.2928 z"
         style="font-size:52.24768448px;line-height:1.25;fill:#375452;fill-opacity:1;stroke:#375452;stroke-width:1.61196733;stroke-miterlimit:4;stroke-dasharray:none;stroke-opacity:1"
         id="path868" />
      <path
         d="m 274.2499,1046.9173 c 0,0.7315 0.57472,1.2539 1.25394,1.2539 0.67922,0 1.25394,-0.5224 1.25394,-1.2539 v -13.8979 c 0,-5.695 -4.65004,-10.3973 -10.39728,-10.3973 -3.18711,0 -6.06074,1.463 -7.94165,3.7096 v -2.4556 c 0,-0.6793 -0.52248,-1.254 -1.2017,-1.254 -0.73147,0 -1.25394,0.5747 -1.25394,1.254 v 8.7253 0.418 13.8979 0.3135 c 0,0 0.0522,0.052 0.0522,0.1045 0,0.052 0,0.1045 0.0523,0.1567 0.15674,0.3135 0.47023,0.5747 0.83596,0.6792 h 0.31349 c 0.36573,0 0.73147,-0.1567 0.94046,-0.4702 0.15674,-0.1567 0.20899,-0.3657 0.26124,-0.5747 v -0.209 -13.8979 c 0.10449,-4.3365 3.60509,-7.8894 7.94165,-7.8894 4.3888,0 7.8894,3.5529 7.8894,7.8894 z"
         style="font-size:52.24768448px;line-height:1.25;fill:#375452;fill-opacity:1;stroke:#375452;stroke-width:1.61196733;stroke-miterlimit:4;stroke-dasharray:none;stroke-opacity:1"
         id="path870" />
      <path
         d="m 307.46636,1046.9173 c 0,0.6792 0.57473,1.2539 1.3062,1.2539 0.67921,0 1.25394,-0.5747 1.25394,-1.2539 v -11.4945 -0.5225 -22.0485 c 0,-0.6792 -0.57473,-1.2539 -1.25394,-1.2539 -0.73147,0 -1.3062,0.5747 -1.3062,1.2539 v 14.7339 c -2.24665,-3.0304 -5.79949,-5.0158 -9.82256,-5.0158 -6.8967,0 -12.3827,5.7472 -12.3827,12.8529 0,7.0012 5.486,12.7484 12.3827,12.7484 4.02307,0 7.57591,-1.9331 9.82256,-4.9635 z m -9.82256,-1.3062 c -5.38151,0 -9.82257,-4.5455 -9.82257,-10.1883 0,-5.695 4.44106,-10.2928 9.82257,-10.2928 5.27701,0 9.61357,4.3888 9.82256,9.8748 v 0.836 c -0.20899,5.4337 -4.54555,9.7703 -9.82256,9.7703 z"
         style="font-size:52.24768448px;line-height:1.25;fill:#375452;fill-opacity:1;stroke:#375452;stroke-width:1.61196733;stroke-miterlimit:4;stroke-dasharray:none;stroke-opacity:1"
         id="path872" />
      <path
         d="m 341.69676,1022.5699 c -0.67922,0 -1.25394,0.5225 -1.25394,1.2539 v 3.7619 c -2.1944,-3.0304 -5.695,-5.0158 -9.61358,-5.0158 -6.73995,0 -12.12146,5.7995 -12.12146,12.8007 0,7.0011 5.38151,12.8006 12.12146,12.8006 3.91858,0 7.41918,-2.0376 9.61358,-5.068 v 3.8141 c 0,0.6792 0.57472,1.2539 1.25394,1.2539 0.67922,0 1.25395,-0.5747 1.25395,-1.2539 v -23.0935 c 0,-0.7314 -0.57473,-1.2539 -1.25395,-1.2539 z m -10.86752,23.0935 c -5.22476,0 -9.61357,-4.5456 -9.61357,-10.2928 0,-5.7473 4.38881,-10.3451 9.61357,-10.3451 5.27702,0 9.61358,4.5978 9.61358,10.3451 0,5.7472 -4.33656,10.2928 -9.61358,10.2928 z"
         style="font-size:52.24768448px;line-height:1.25;fill:#375452;fill-opacity:1;stroke:#375452;stroke-width:1.61196733;stroke-miterlimit:4;stroke-dasharray:none;stroke-opacity:1"
         id="path874" />
      <path
         d="m 353.82557,1046.9173 c 0,0.7315 0.57473,1.2539 1.30619,1.2539 0.62698,0 1.2017,-0.5224 1.2017,-1.2539 v -11.2333 c 0,-0.1045 0,-0.2089 0.1045,-0.4179 0.36573,-1.045 1.35844,-3.6574 3.08261,-5.9563 1.77642,-2.2989 4.07532,-4.1798 7.41917,-4.1798 0.67922,0 1.25395,-0.5747 1.25395,-1.2539 0,-0.7315 -0.57473,-1.254 -1.25395,-1.254 -4.91128,0 -8.30738,3.2394 -10.24055,6.2697 -0.15674,0.209 -0.26123,0.418 -0.36573,0.627 v -5.6427 c 0,-0.7315 -0.57472,-1.254 -1.2017,-1.254 -0.73146,0 -1.30619,0.5225 -1.30619,1.254 z"
         style="font-size:52.24768448px;line-height:1.25;fill:#375452;fill-opacity:1;stroke:#375452;stroke-width:1.61196733;stroke-miterlimit:4;stroke-dasharray:none;stroke-opacity:1"
         id="path876" />
      <path
         d="m 374.64382,1037.6695 c 0,5.7472 4.65004,10.3972 10.34504,10.4495 3.18711,0 6.00849,-1.4629 7.94165,-3.6573 v 1.6719 c -0.0523,5.277 -4.33656,9.5091 -9.66582,9.5091 -1.46294,0 -2.92587,-0.3658 -4.17982,-0.9927 -0.62697,-0.1568 -1.30619,0 -1.61967,0.6269 -0.31349,0.5747 -0.0522,1.3062 0.52247,1.6719 1.61968,0.7315 3.3961,1.2017 5.27702,1.2017 6.73995,0 12.17371,-5.3292 12.17371,-12.0169 v -7.9939 -0.4702 -13.8979 c 0,-0.1568 -0.0523,-0.3658 -0.15674,-0.5225 -0.0523,-0.1567 -0.20899,-0.3135 -0.31349,-0.418 -0.20899,-0.1045 -0.41798,-0.209 -0.62697,-0.2612 h -0.15675 -0.15674 c -0.0523,0 -0.10449,0.052 -0.15674,0.052 h -0.1045 c -0.15674,0.052 -0.36573,0.1568 -0.47023,0.3135 -0.0522,0 -0.0522,0.052 -0.10449,0.052 0,0.052 -0.0523,0.1045 -0.0523,0.1567 -0.15674,0.1567 -0.20899,0.418 -0.20899,0.627 v 13.8979 c -0.0523,4.3888 -3.55284,7.8894 -7.94165,7.8894 -4.33656,0 -7.83715,-3.5006 -7.83715,-7.8894 v -13.8979 c 0,-0.6792 -0.57473,-1.2017 -1.30619,-1.2017 -0.62697,0 -1.2017,0.5225 -1.2017,1.2017 z"
         style="font-size:52.24768448px;line-height:1.25;fill:#375452;fill-opacity:1;stroke:#375452;stroke-width:1.61196733;stroke-miterlimit:4;stroke-dasharray:none;stroke-opacity:1"
         id="path878" />
      <path
         d="m 422.27658,1042.9465 c 3.03036,2.4034 7.8894,5.2247 13.4799,5.277 3.65734,0 6.94894,-1.0972 9.40458,-2.8736 2.45565,-1.7765 4.12757,-4.3888 4.12757,-7.3147 0,-2.9259 -1.61968,-5.3293 -4.02307,-6.8967 -2.40339,-1.6197 -5.64275,-2.6646 -9.30009,-3.3439 h -0.10449 c -3.29161,-0.6269 -6.00849,-1.5151 -7.83716,-2.7691 -1.82867,-1.2539 -2.66463,-2.6124 -2.71688,-4.441 0,-1.881 1.04496,-3.6574 2.87363,-5.0158 1.82867,-1.3062 4.4933,-2.1944 7.47142,-2.1944 4.02307,0 7.15793,1.9854 10.03155,3.8663 0.52248,0.3657 1.25395,0.209 1.56743,-0.3135 0.36574,-0.5747 0.20899,-1.2539 -0.31348,-1.6197 -2.87363,-1.8809 -6.47872,-4.232 -11.2855,-4.232 -3.44835,0 -6.53097,0.9927 -8.82986,2.6646 -2.2989,1.6719 -3.81408,4.0753 -3.81408,6.8445 0,2.7168 1.51518,4.9112 3.76183,6.3742 2.24665,1.5152 5.22477,2.4556 8.62087,3.0826 h 0.10449 c 3.55284,0.6792 6.47872,1.6719 8.46413,2.9781 1.98541,1.3585 2.97812,2.9259 2.97812,5.0158 0,2.0376 -1.09721,3.9708 -3.13487,5.4337 -1.98541,1.463 -4.85903,2.4034 -8.04614,2.4034 -4.75454,0.052 -9.30009,-2.5078 -12.01697,-4.7023 -0.47023,-0.4179 -1.20169,-0.3657 -1.61968,0.1568 -0.36573,0.4702 -0.31348,1.2017 0.15675,1.6197 z"
         style="font-size:52.24768448px;line-height:1.25;fill:#375452;fill-opacity:1;stroke:#375452;stroke-width:1.61196733;stroke-miterlimit:4;stroke-dasharray:none;stroke-opacity:1"
         id="path880" />
      <path
         d="m 469.45459,1048.1712 c 0,0 0,0 0,0 3.03037,0 5.90399,-1.0449 8.04615,-2.7168 0.62697,-0.4703 0.73147,-1.254 0.26124,-1.8287 -0.41798,-0.4702 -1.14945,-0.627 -1.72418,-0.209 -1.82867,1.4107 -4.12756,2.2467 -6.58321,2.2467 -5.95623,0 -10.65852,-4.5978 -10.65852,-10.3451 0,-5.6427 4.70229,-10.2928 10.65852,-10.2928 2.45565,0 4.75454,0.836 6.58321,2.2989 0.57473,0.418 1.3062,0.2613 1.72418,-0.209 0.47023,-0.5747 0.36573,-1.3584 -0.15675,-1.7242 -2.24665,-1.7764 -5.12027,-2.8213 -8.15064,-2.8213 -7.31467,0 -13.16641,5.6427 -13.16641,12.7484 0,7.2102 5.85174,12.8529 13.16641,12.8529 z"
         style="font-size:52.24768448px;line-height:1.25;fill:#375452;fill-opacity:1;stroke:#375452;stroke-width:1.61196733;stroke-miterlimit:4;stroke-dasharray:none;stroke-opacity:1"
         id="path882" />
      <path
         d="m 506.72353,1046.9173 c 0,0.6792 0.57472,1.2539 1.25394,1.2539 0.73147,0 1.3062,-0.5747 1.3062,-1.2539 v -14.2636 c 0,-5.904 -4.80679,-10.0838 -10.71078,-10.0838 -3.23936,0 -6.16523,1.4629 -8.09839,3.7618 v -13.4799 c 0,-0.6792 -0.57472,-1.2539 -1.30619,-1.2539 -0.67922,0 -1.25395,0.5747 -1.25395,1.2539 v 19.3839 0.418 14.2636 c 0,0.1567 0,0.2612 0.0523,0.418 0.0523,0.1567 0.1045,0.2612 0.20899,0.418 0.26124,0.2612 0.62697,0.4179 0.99271,0.4179 h 0.15674 0.1045 c 0.0522,0 0.10449,-0.052 0.10449,-0.052 0.36574,-0.1045 0.62697,-0.3135 0.78372,-0.627 0.0522,-0.052 0.0522,-0.1045 0.10449,-0.209 0,-0.052 0.0522,-0.1045 0.0522,-0.209 v -0.1567 -14.2636 c 0,-4.4933 3.65734,-7.5237 8.09839,-7.5237 4.4933,0 8.15064,3.0304 8.15064,7.5237 z"
         style="font-size:52.24768448px;line-height:1.25;fill:#375452;fill-opacity:1;stroke:#375452;stroke-width:1.61196733;stroke-miterlimit:4;stroke-dasharray:none;stroke-opacity:1"
         id="path884" />
      <path
         d="m 518.75518,1035.3706 c 0,6.9489 5.43376,12.8006 12.12146,12.8006 6.73995,0 12.12146,-5.8517 12.12146,-12.8006 0,-6.949 -5.38151,-12.8007 -12.12146,-12.8007 -6.6877,0 -12.12146,5.8517 -12.12146,12.8007 z m 2.50789,0 c 0,-5.695 4.3888,-10.3451 9.61357,-10.3451 5.22477,0 9.61357,4.6501 9.61357,10.3451 0,5.695 -4.3888,10.2928 -9.61357,10.2928 -5.22477,0 -9.61357,-4.5978 -9.61357,-10.2928 z"
         style="font-size:52.24768448px;line-height:1.25;fill:#375452;fill-opacity:1;stroke:#375452;stroke-width:1.61196733;stroke-miterlimit:4;stroke-dasharray:none;stroke-opacity:1"
         id="path886" />
      <path
         d="m 551.40999,1035.3706 c 0,6.9489 5.43376,12.8006 12.12147,12.8006 6.73995,0 12.12146,-5.8517 12.12146,-12.8006 0,-6.949 -5.38151,-12.8007 -12.12146,-12.8007 -6.68771,0 -12.12147,5.8517 -12.12147,12.8007 z m 2.50789,0 c 0,-5.695 4.38881,-10.3451 9.61358,-10.3451 5.22476,0 9.61357,4.6501 9.61357,10.3451 0,5.695 -4.38881,10.2928 -9.61357,10.2928 -5.22477,0 -9.61358,-4.5978 -9.61358,-10.2928 z"
         style="font-size:52.24768448px;line-height:1.25;fill:#375452;fill-opacity:1;stroke:#375452;stroke-width:1.61196733;stroke-miterlimit:4;stroke-dasharray:none;stroke-opacity:1"
         id="path888" />
      <path
         d="m 585.63224,1046.9173 c 0,0.6792 0.57472,1.2539 1.25394,1.2539 0.73147,0 1.3062,-0.5747 1.3062,-1.2539 v -34.0655 c 0,-0.6792 -0.57473,-1.2539 -1.3062,-1.2539 -0.67922,0 -1.25394,0.5747 -1.25394,1.2539 z"
         style="font-size:52.24768448px;line-height:1.25;fill:#375452;fill-opacity:1;stroke:#375452;stroke-width:1.61196733;stroke-miterlimit:4;stroke-dasharray:none;stroke-opacity:1"
         id="path890" />
    </g>
  </g>
</svg>
