<?xml version="1.0" encoding="UTF-8" standalone="no"?>
<!-- Created with Inkscape (http://www.inkscape.org/) -->

<svg
   xmlns:dc="http://purl.org/dc/elements/1.1/"
   xmlns:cc="http://creativecommons.org/ns#"
   xmlns:rdf="http://www.w3.org/1999/02/22-rdf-syntax-ns#"
   xmlns:svg="http://www.w3.org/2000/svg"
   xmlns="http://www.w3.org/2000/svg"
   xmlns:xlink="http://www.w3.org/1999/xlink"
   xmlns:sodipodi="http://sodipodi.sourceforge.net/DTD/sodipodi-0.dtd"
   xmlns:inkscape="http://www.inkscape.org/namespaces/inkscape"
   width="1253.7603"
   height="136.00005"
   id="svg2"
   version="1.1"
   inkscape:version="0.92.3 (2405546, 2018-03-11)"
   sodipodi:docname="iHub_type-fullname_hicolour@128px.svg"
   inkscape:export-filename="/home/alin_k/Design/Brands/iHub/Brand/png/iHub_icon-master_hicolour@128px.png"
   inkscape:export-xdpi="180"
   inkscape:export-ydpi="180">
  <defs
     id="defs4">
    <linearGradient
       inkscape:collect="always"
       id="linearGradient3882">
      <stop
         style="stop-color:#35514f;stop-opacity:1;"
         offset="0"
         id="stop3884" />
      <stop
         style="stop-color:#466b69;stop-opacity:1"
         offset="1"
         id="stop3886" />
    </linearGradient>
    <linearGradient
       inkscape:collect="always"
       id="linearGradient3824">
      <stop
         style="stop-color:#fcff5d;stop-opacity:1"
         offset="0"
         id="stop3826" />
      <stop
         style="stop-color:#ff8846;stop-opacity:1"
         offset="1"
         id="stop3828" />
    </linearGradient>
    <linearGradient
       inkscape:collect="always"
       id="linearGradient3816">
      <stop
         style="stop-color:#55bd7a;stop-opacity:1"
         offset="0"
         id="stop3818" />
      <stop
         style="stop-color:#5efa96;stop-opacity:1"
         offset="1"
         id="stop3820" />
    </linearGradient>
    <linearGradient
       id="linearGradient3793"
       inkscape:collect="always">
      <stop
         id="stop3795"
         offset="0"
         style="stop-color:#ff580a;stop-opacity:1" />
      <stop
         id="stop3797"
         offset="1"
         style="stop-color:#fe705a;stop-opacity:1" />
    </linearGradient>
    <linearGradient
       inkscape:collect="always"
       xlink:href="#linearGradient3793"
       id="linearGradient3814"
       x1="126.12076"
       y1="1043.3527"
       x2="160.22067"
       y2="975.67242"
       gradientUnits="userSpaceOnUse" />
    <linearGradient
       inkscape:collect="always"
       xlink:href="#linearGradient3882"
       id="linearGradient3908"
       gradientUnits="userSpaceOnUse"
       gradientTransform="matrix(0.86440825,0,0,0.86440825,145.63221,8.08739)"
       x1="-118.43305"
       y1="5.7780933"
       x2="-55.541393"
       y2="148.96722" />
    <linearGradient
       inkscape:collect="always"
       xlink:href="#linearGradient3816"
       id="linearGradient3911"
       gradientUnits="userSpaceOnUse"
       gradientTransform="matrix(0.86440825,0,0,0.86440825,-405.21239,558.90111)"
       x1="501.09921"
       y1="510.22379"
       x2="542.74628"
       y2="493.79523" />
    <linearGradient
       inkscape:collect="always"
       xlink:href="#linearGradient3882"
       id="linearGradient3917"
       gradientUnits="userSpaceOnUse"
       gradientTransform="matrix(0.93734441,0,0,0.93734441,139.10218,942.12205)"
       x1="-118.43305"
       y1="5.7780933"
       x2="-55.541393"
       y2="148.96722" />
    <linearGradient
       inkscape:collect="always"
       xlink:href="#linearGradient3816"
       id="linearGradient3920"
       gradientUnits="userSpaceOnUse"
       gradientTransform="matrix(0.93734441,0,0,0.93734441,-443.6676,522.02829)"
       x1="501.09921"
       y1="510.22379"
       x2="542.74628"
       y2="493.79523" />
    <radialGradient
       inkscape:collect="always"
       xlink:href="#linearGradient3824"
       id="radialGradient3923"
       gradientUnits="userSpaceOnUse"
       gradientTransform="matrix(1.2017755,0,0,1.2017755,-583.09783,383.15888)"
       cx="527.28387"
       cy="525.16302"
       fx="527.28387"
       fy="525.16302"
       r="51.136089" />
    <radialGradient
       inkscape:collect="always"
       xlink:href="#linearGradient3824"
       id="radialGradient3933"
       cx="63.900429"
       cy="988.36218"
       fx="63.900429"
       fy="988.36218"
       r="77.321426"
       gradientTransform="matrix(1.0323889,0,0,1.0323889,-15.391095,-18.154832)"
       gradientUnits="userSpaceOnUse" />
    <linearGradient
       inkscape:collect="always"
       xlink:href="#linearGradient3882"
       id="linearGradient3785"
       x1="145.46196"
       y1="18.903526"
       x2="220.71832"
       y2="18.903526"
       gradientUnits="userSpaceOnUse" />
  </defs>
  <sodipodi:namedview
     id="base"
     pagecolor="#ffffff"
     bordercolor="#666666"
     borderopacity="1.0"
     inkscape:pageopacity="0.0"
     inkscape:pageshadow="2"
     inkscape:zoom="0.7"
     inkscape:cx="227.22231"
     inkscape:cy="18.279067"
     inkscape:document-units="px"
     inkscape:current-layer="text3005"
     showgrid="false"
     showguides="true"
     inkscape:guide-bbox="true"
     fit-margin-top="8"
     fit-margin-left="8"
     fit-margin-right="8"
     fit-margin-bottom="8"
     inkscape:window-width="1680"
     inkscape:window-height="1050"
     inkscape:window-x="0"
     inkscape:window-y="0"
     inkscape:window-maximized="0" />
  <metadata
     id="metadata7">
    <rdf:RDF>
      <cc:Work
         rdf:about="">
        <dc:format>image/svg+xml</dc:format>
        <dc:type
           rdf:resource="http://purl.org/dc/dcmitype/StillImage" />
        <dc:title></dc:title>
      </cc:Work>
    </rdf:RDF>
  </metadata>
  <g
     inkscape:label="Layer 1"
     inkscape:groupmode="layer"
     id="layer1"
     transform="translate(5.3531285,-934.21935)">
    <path
       style="fill:url(#radialGradient3923);fill-opacity:1;stroke:none"
       d="m 98.511128,1014.287 c 0,26.4722 -21.459957,47.9321 -47.932129,47.9321 -26.472181,0 -47.9321275,-21.4599 -47.9321275,-47.9321 0,-26.47226 21.4599465,-47.93221 47.9321275,-47.93221 26.472172,0 47.932129,21.45995 47.932129,47.93221 z"
       id="path2990"
       inkscape:connector-curvature="0" />
    <path
       style="fill:url(#linearGradient3920);fill-opacity:1;stroke:none"
       d="m 49.779585,1038.5822 c 0,0 32.11237,0.2668 32.359369,-36.5989 0.167898,-25.04375 -32.359369,-56.73632 -32.359369,-56.73632 0,0 -30.761206,31.65246 -30.761206,56.73632 0,36.1646 30.761206,36.5989 30.761206,36.5989 z"
       inkscape:connector-curvature="0"
       sodipodi:nodetypes="cscsc"
       id="path3826" />
    <path
       inkscape:connector-curvature="0"
       d="m 46.861632,1062.0436 c 1.23378,0.095 2.461907,0.1758 3.720086,0.1758 0.772896,0 1.520841,-0.081 2.284777,-0.1172 l 0,-20.7387 c 3.327385,-0.392 8.887159,-1.5112 14.470254,-4.6575 8.8143,-4.9672 17.68019,-15.4048 17.809544,-34.7111 0.0927,-13.83253 -8.423905,-28.29949 -16.696448,-39.57348 -8.272542,-11.274 -16.579279,-19.33273 -16.579279,-19.33273 a 3.0083131,3.0083131 0 0 0 -2.460529,-0.84947 3.0083131,3.0083131 0 0 0 -1.786813,0.90805 c 0,0 -7.857777,8.06513 -15.700519,19.33273 -7.842742,11.2676 -15.905563,25.71412 -15.905563,39.4857 0,18.9352 8.411279,29.372 16.842908,34.4474 5.435941,3.2722 10.822447,4.4551 14.001582,4.8918 l 0,20.7387 z m 2.987785,-112.3935 c 2.408404,2.4613 7.537524,7.85494 13.767246,16.34494 7.949112,10.83322 15.599933,24.73017 15.524767,35.94126 -0.117645,17.5596 -7.430245,25.4106 -14.733882,29.5265 -4.390662,2.4743 -8.742874,3.4479 -11.541053,3.8372 l 0,-12.742 a 3.0086808,3.0086808 0 0 0 -3.04637,-3.0757 3.0086808,3.0086808 0 0 0 -2.958493,3.0757 l 0,12.6834 c -2.658037,-0.4419 -6.753538,-1.4898 -10.896629,-3.9837 -6.948975,-4.1829 -13.942998,-12.0625 -13.942998,-29.292 0,-11.31234 7.313189,-25.22895 14.851051,-36.05854 5.865254,-8.42655 10.664045,-13.75869 12.976362,-16.25706 z m 0.410088,43.82085 c -8.958444,-0.17712 -17.589324,4.9223 -21.471045,13.59155 a 3.0083131,3.0083131 0 1 0 5.477606,2.4605 c 3.846927,-8.5915 13.84619,-12.40025 22.437682,-8.5532 3.716393,1.664 6.70864,4.6022 8.4361,8.2895 a 3.0083131,3.0083131 0 1 0 5.448314,-2.5483 c -2.338796,-4.9923 -6.392323,-8.99525 -11.423885,-11.24819 -2.889729,-1.29391 -5.918627,-1.93282 -8.904772,-1.99186 z m -0.205044,9.72495 c -5.168461,-0.098 -10.155414,2.8292 -12.390521,7.821 a 3.0083131,3.0083131 0 1 0 5.477606,2.4606 c 1.651461,-3.6883 5.890198,-5.2837 9.578489,-3.6323 1.587683,0.711 2.894191,1.9691 3.632209,3.5444 a 3.0083131,3.0083131 0 1 0 5.419023,-2.5777 c -1.349355,-2.8803 -3.687832,-5.1738 -6.590702,-6.4736 -1.663919,-0.745 -3.403282,-1.1096 -5.126103,-1.1424 z"
       style="font-size:medium;font-style:normal;font-variant:normal;font-weight:normal;font-stretch:normal;text-indent:0;text-align:start;text-decoration:none;line-height:normal;letter-spacing:normal;word-spacing:normal;text-transform:none;direction:ltr;block-progression:tb;writing-mode:lr-tb;text-anchor:start;baseline-shift:baseline;color:#000000;fill:url(#linearGradient3917);fill-opacity:1;stroke:none;stroke-width:6.16807938;marker:none;visibility:visible;display:inline;overflow:visible;enable-background:accumulate;font-family:Sans;-inkscape-font-specification:Sans"
       id="path3785" />
    <g
       aria-label="Inquiry Hub Secondary School"
       style="font-style:normal;font-variant:normal;font-weight:normal;font-stretch:normal;line-height:0%;font-family:Quicksand;-inkscape-font-specification:Quicksand;letter-spacing:0px;word-spacing:0px;fill:#375452;fill-opacity:1;stroke:#375452;stroke-width:2.29999995;stroke-miterlimit:4;stroke-dasharray:none;stroke-opacity:1"
       id="text3005">
      <path
         d="m 129.84566,1019.2536 c 0,0.9692 0.82003,1.7892 1.78916,1.7892 1.04368,0 1.86371,-0.82 1.86371,-1.7892 v -48.60557 c 0,-0.96913 -0.82003,-1.78916 -1.86371,-1.78916 -0.96913,0 -1.78916,0.82003 -1.78916,1.78916 z"
         style="font-size:74.54845428px;line-height:1.25;fill:#375452;fill-opacity:1;stroke:#375452;stroke-width:2.29999995;stroke-miterlimit:4;stroke-dasharray:none;stroke-opacity:1"
         id="path969" />
      <path
         d="m 177.30972,1019.2536 c 0,1.0437 0.82004,1.7892 1.78917,1.7892 0.96913,0 1.78916,-0.7455 1.78916,-1.7892 v -19.82987 c 0,-8.12578 -6.63481,-14.83514 -14.83514,-14.83514 -4.54746,0 -8.64762,2.08736 -11.33137,5.29294 v -3.50378 c 0,-0.96913 -0.74548,-1.78916 -1.71461,-1.78916 -1.04368,0 -1.78916,0.82003 -1.78916,1.78916 v 12.4496 0.59638 19.82987 0.4473 c 0,0 0.0745,0.075 0.0745,0.1491 0,0.075 0,0.1491 0.0746,0.2237 0.22365,0.4472 0.67094,0.82 1.19278,0.9691 h 0.44729 c 0.52184,0 1.04368,-0.2237 1.34187,-0.671 0.22365,-0.2236 0.29819,-0.5218 0.37274,-0.82 v -0.2982 -19.82987 c 0.1491,-6.18752 5.14385,-11.25681 11.33137,-11.25681 6.26207,0 11.25681,5.06929 11.25681,11.25681 z"
         style="font-size:74.54845428px;line-height:1.25;fill:#375452;fill-opacity:1;stroke:#375452;stroke-width:2.29999995;stroke-miterlimit:4;stroke-dasharray:none;stroke-opacity:1"
         id="path971" />
      <path
         d="m 226.01083,1034.5361 c 0,0.9691 0.82004,1.7891 1.78917,1.7891 1.11822,0 1.86371,-0.82 1.86371,-1.7891 v -31.1613 -0.7455 -0.7455 -15.58059 c 0,-0.96913 -0.74549,-1.78917 -1.86371,-1.78917 -0.96913,0 -1.78917,0.82004 -1.78917,1.78917 v 5.36748 c -3.20558,-4.32381 -8.27488,-7.15665 -14.01511,-7.15665 -9.61675,0 -17.51888,8.12578 -17.51888,18.11526 0,9.915 7.90213,18.1898 17.51888,18.2644 5.74023,0 10.80953,-2.9074 14.01511,-7.2312 z m -27.88112,-31.9068 c 0,-8.12576 6.26207,-14.46238 13.86601,-14.46238 7.75304,0 14.01511,6.33662 14.01511,14.46238 0,8.0513 -6.26207,14.537 -14.01511,14.6115 -7.60394,-0.075 -13.86601,-6.5602 -13.86601,-14.6115 z"
         style="font-size:74.54845428px;line-height:1.25;fill:#375452;fill-opacity:1;stroke:#375452;stroke-width:2.29999995;stroke-miterlimit:4;stroke-dasharray:none;stroke-opacity:1"
         id="path973" />
      <path
         d="m 245.40507,1006.1331 c 0,8.2003 6.56027,14.9097 14.7606,14.9097 8.34942,0 14.98424,-6.7094 14.98424,-14.9097 v -19.90444 c 0,-1.04368 -0.82004,-1.78917 -1.86371,-1.78917 -0.89459,0 -1.78917,0.74549 -1.78917,1.78917 v 19.90444 c 0,6.2621 -5.06929,11.2568 -11.33136,11.3314 -6.18752,-0.075 -11.18227,-5.0693 -11.18227,-11.3314 v -19.90444 c 0,-1.04368 -0.82003,-1.78917 -1.78916,-1.78917 -0.96913,0 -1.78917,0.74549 -1.78917,1.78917 z"
         style="font-size:74.54845428px;line-height:1.25;fill:#375452;fill-opacity:1;stroke:#375452;stroke-width:2.29999995;stroke-miterlimit:4;stroke-dasharray:none;stroke-opacity:1"
         id="path975" />
      <path
         d="m 291.94428,1019.2536 c 0,0.9692 0.82004,1.7892 1.78917,1.7892 1.04368,0 1.86371,-0.82 1.86371,-1.7892 v -32.95039 c 0,-1.04368 -0.82003,-1.78917 -1.86371,-1.78917 -0.96913,0 -1.78917,0.74549 -1.78917,1.78917 z m 0,-43.16353 c 0,1.04368 0.82004,1.93826 1.78917,1.93826 1.04368,0 1.86371,-0.89458 1.86371,-1.93826 v -1.71462 c 0,-0.96913 -0.82003,-1.78916 -1.86371,-1.78916 -0.96913,0 -1.78917,0.82003 -1.78917,1.78916 z"
         style="font-size:74.54845428px;line-height:1.25;fill:#375452;fill-opacity:1;stroke:#375452;stroke-width:2.29999995;stroke-miterlimit:4;stroke-dasharray:none;stroke-opacity:1"
         id="path977" />
      <path
         d="m 312.83649,1019.2536 c 0,1.0437 0.82003,1.7892 1.86371,1.7892 0.89458,0 1.71461,-0.7455 1.71461,-1.7892 v -16.0279 c 0,-0.1491 0,-0.2982 0.1491,-0.5964 0.52184,-1.491 1.93826,-5.21837 4.39836,-8.49851 2.53465,-3.28013 5.81478,-5.96387 10.58588,-5.96387 0.96913,0 1.78916,-0.82004 1.78916,-1.78917 0,-1.04367 -0.82003,-1.78916 -1.78916,-1.78916 -7.00756,0 -11.85321,4.62201 -14.6115,8.94582 -0.22364,0.29819 -0.37274,0.59638 -0.52184,0.89458 v -8.05124 c 0,-1.04367 -0.82003,-1.78916 -1.71461,-1.78916 -1.04368,0 -1.86371,0.74549 -1.86371,1.78916 z"
         style="font-size:74.54845428px;line-height:1.25;fill:#375452;fill-opacity:1;stroke:#375452;stroke-width:2.29999995;stroke-miterlimit:4;stroke-dasharray:none;stroke-opacity:1"
         id="path979" />
      <path
         d="m 342.54054,1006.0585 c 0,8.2004 6.63482,14.8352 14.7606,14.9097 4.54745,0 8.57307,-2.0873 11.33136,-5.2184 v 2.3856 c -0.0745,7.5294 -6.18752,13.5678 -13.79146,13.5678 -2.08736,0 -4.17471,-0.5218 -5.96388,-1.4164 -0.89458,-0.2237 -1.86371,0 -2.311,0.8946 -0.44729,0.82 -0.0746,1.8637 0.74549,2.3855 2.311,1.0437 4.84564,1.7146 7.52939,1.7146 9.61675,0 17.36979,-7.6039 17.36979,-17.1461 v -11.4059 -0.671 -19.82984 c 0,-0.22365 -0.0745,-0.52184 -0.22365,-0.74549 -0.0746,-0.22364 -0.29819,-0.44729 -0.44729,-0.59638 -0.29819,-0.1491 -0.59638,-0.2982 -0.89458,-0.37275 h -0.22364 -0.22365 c -0.0745,0 -0.1491,0.0745 -0.22364,0.0745 h -0.1491 c -0.22365,0.0746 -0.52184,0.22365 -0.67094,0.44729 -0.0745,0 -0.0745,0.0745 -0.14909,0.0745 0,0.0746 -0.0745,0.1491 -0.0745,0.22365 -0.22365,0.22364 -0.2982,0.59638 -0.2982,0.89458 v 19.82984 c -0.0745,6.2621 -5.06929,11.2569 -11.33136,11.2569 -6.18752,0 -11.18227,-4.9948 -11.18227,-11.2569 v -19.82984 c 0,-0.96913 -0.82003,-1.71462 -1.86371,-1.71462 -0.89458,0 -1.71462,0.74549 -1.71462,1.71462 z"
         style="font-size:74.54845428px;line-height:1.25;fill:#375452;fill-opacity:1;stroke:#375452;stroke-width:2.29999995;stroke-miterlimit:4;stroke-dasharray:none;stroke-opacity:1"
         id="path981" />
      <path
         d="m 443.15651,1019.2536 c 0,0.9692 0.82003,1.7892 1.78916,1.7892 1.04368,0 1.86372,-0.82 1.86372,-1.7892 v -48.60557 c 0,-0.96913 -0.82004,-1.78916 -1.86372,-1.78916 -0.96913,0 -1.78916,0.82003 -1.78916,1.78916 v 22.51363 h -26.83744 v -22.51363 c 0,-0.96913 -0.82003,-1.78916 -1.86371,-1.78916 -0.96913,0 -1.78917,0.82003 -1.78917,1.78916 v 48.60557 c 0,0.9692 0.82004,1.7892 1.78917,1.7892 1.04368,0 1.86371,-0.82 1.86371,-1.7892 v -22.51361 h 26.83744 z"
         style="font-size:74.54845428px;line-height:1.25;fill:#375452;fill-opacity:1;stroke:#375452;stroke-width:2.29999995;stroke-miterlimit:4;stroke-dasharray:none;stroke-opacity:1"
         id="path983" />
      <path
         d="m 463.95434,1006.1331 c 0,8.2003 6.56027,14.9097 14.7606,14.9097 8.34943,0 14.98424,-6.7094 14.98424,-14.9097 v -19.90444 c 0,-1.04368 -0.82004,-1.78917 -1.86371,-1.78917 -0.89459,0 -1.78917,0.74549 -1.78917,1.78917 v 19.90444 c 0,6.2621 -5.06929,11.2568 -11.33136,11.3314 -6.18752,-0.075 -11.18227,-5.0693 -11.18227,-11.3314 v -19.90444 c 0,-1.04368 -0.82003,-1.78917 -1.78916,-1.78917 -0.96913,0 -1.78917,0.74549 -1.78917,1.78917 z"
         style="font-size:74.54845428px;line-height:1.25;fill:#375452;fill-opacity:1;stroke:#375452;stroke-width:2.29999995;stroke-miterlimit:4;stroke-dasharray:none;stroke-opacity:1"
         id="path985" />
      <path
         d="m 510.41901,1019.2536 c 0,0.9692 0.82003,1.7892 1.78916,1.7892 1.04368,0 1.86371,-0.82 1.86371,-1.7892 v -5.2929 c 3.20558,4.3238 8.27488,7.0821 14.01511,7.0821 9.8404,0 17.66798,-8.2003 17.66798,-18.1898 0,-10.13863 -7.82758,-18.33896 -17.66798,-18.33896 -5.74023,0 -10.80953,2.83284 -14.01511,7.15665 v -21.02266 c 0,-0.96913 -0.82003,-1.78916 -1.86371,-1.78916 -0.96913,0 -1.78916,0.82003 -1.78916,1.78916 v 31.45947 0.7455 0.7454 z m 3.65287,-16.997 c 0.29819,-7.82761 6.48572,-14.08968 14.01511,-14.08968 7.75304,0 14.01511,6.56026 14.01511,14.68608 0,8.0512 -6.26207,14.5369 -14.01511,14.5369 -7.67849,0 -14.01511,-6.4857 -14.01511,-14.5369 z"
         style="font-size:74.54845428px;line-height:1.25;fill:#375452;fill-opacity:1;stroke:#375452;stroke-width:2.29999995;stroke-miterlimit:4;stroke-dasharray:none;stroke-opacity:1"
         id="path987" />
      <path
         d="m 580.71355,1013.5879 c 4.32381,3.4293 11.25681,7.4549 19.2335,7.5294 5.21839,0 9.91494,-1.5655 13.41872,-4.1001 3.50378,-2.5347 5.88933,-6.2621 5.88933,-10.4368 0,-4.1747 -2.311,-7.60396 -5.74023,-9.84041 -3.42923,-2.311 -8.05124,-3.80197 -13.26963,-4.7711 h -0.14909 c -4.69656,-0.89458 -8.57308,-2.16191 -11.18227,-3.95107 -2.6092,-1.78916 -3.80197,-3.72742 -3.87652,-6.33662 0,-2.68374 1.49097,-5.21839 4.10016,-7.15665 2.6092,-1.86371 6.41117,-3.13103 10.66043,-3.13103 5.74023,0 10.21314,2.83284 14.31331,5.51658 0.74548,0.52184 1.78916,0.29819 2.23645,-0.44729 0.52184,-0.82003 0.29819,-1.78916 -0.44729,-2.311 -4.10017,-2.68375 -9.24401,-6.03843 -16.10247,-6.03843 -4.9202,0 -9.31855,1.41642 -12.59869,3.80197 -3.28013,2.38555 -5.44203,5.81478 -5.44203,9.76585 0,3.87652 2.1619,7.00756 5.36748,9.09491 3.20559,2.16191 7.45485,3.50378 12.3005,4.39836 h 0.1491 c 5.06929,0.96913 9.244,2.38555 12.07685,4.24926 2.83284,1.93827 4.24926,4.17467 4.24926,7.15667 0,2.9074 -1.56552,5.6657 -4.47291,7.753 -2.83284,2.0874 -6.93301,3.4293 -11.48046,3.4293 -6.78391,0.075 -13.26963,-3.5784 -17.14615,-6.7094 -0.67093,-0.5964 -1.71461,-0.5218 -2.311,0.2236 -0.52184,0.671 -0.44729,1.7147 0.22365,2.311 z"
         style="font-size:74.54845428px;line-height:1.25;fill:#375452;fill-opacity:1;stroke:#375452;stroke-width:2.29999995;stroke-miterlimit:4;stroke-dasharray:none;stroke-opacity:1"
         id="path989" />
      <path
         d="m 646.98478,1021.0428 c 6.18752,0 11.62956,-3.2801 14.76059,-8.2749 0.52184,-0.8946 0.22365,-1.9383 -0.59639,-2.5346 -0.74548,-0.4473 -1.86371,-0.2982 -2.38555,0.5963 -2.4601,4.1002 -6.933,6.6349 -11.77865,6.6349 -7.5294,0 -13.79147,-6.0385 -14.16421,-14.0151 h 29.96848 c 0.96913,0 1.78916,-0.671 1.78916,-1.6401 v -0.2237 -0.074 c -0.74548,-9.54221 -8.20033,-16.99706 -17.59343,-16.99706 -9.8404,0 -17.74254,8.20033 -17.74254,18.33896 0,9.9895 7.90214,18.1898 17.74254,18.1898 z m 0,-32.95043 c 6.70936,0 12.52414,4.99475 13.71691,11.8532 h -27.65747 c 1.34187,-6.933 7.0821,-11.8532 13.94056,-11.8532 z"
         style="font-size:74.54845428px;line-height:1.25;fill:#375452;fill-opacity:1;stroke:#375452;stroke-width:2.29999995;stroke-miterlimit:4;stroke-dasharray:none;stroke-opacity:1"
         id="path991" />
      <path
         d="m 693.45643,1021.0428 c 0,0 0,0 0,0 4.32381,0 8.42398,-1.491 11.48047,-3.8765 0.89458,-0.671 1.04367,-1.7892 0.37274,-2.6092 -0.59639,-0.671 -1.64007,-0.8946 -2.4601,-0.2982 -2.6092,2.0128 -5.88933,3.2056 -9.39311,3.2056 -8.49852,0 -15.20788,-6.5603 -15.20788,-14.7606 0,-8.05127 6.70936,-14.68608 15.20788,-14.68608 3.50378,0 6.78391,1.19278 9.39311,3.28013 0.82003,0.59639 1.86371,0.37274 2.4601,-0.29819 0.67093,-0.82003 0.52184,-1.93826 -0.22365,-2.4601 -3.20558,-2.53465 -7.30575,-4.02562 -11.62956,-4.02562 -10.43678,0 -18.78621,8.05124 -18.78621,18.18986 0,10.2877 8.34943,18.3389 18.78621,18.3389 z"
         style="font-size:74.54845428px;line-height:1.25;fill:#375452;fill-opacity:1;stroke:#375452;stroke-width:2.29999995;stroke-miterlimit:4;stroke-dasharray:none;stroke-opacity:1"
         id="path993" />
      <path
         d="m 716.91588,1002.7784 c 0,9.915 7.75304,18.2644 17.29524,18.2644 9.61675,0 17.29524,-8.3494 17.29524,-18.2644 0,-9.91493 -7.67849,-18.26436 -17.29524,-18.26436 -9.5422,0 -17.29524,8.34943 -17.29524,18.26436 z m 3.57832,0 c 0,-8.12577 6.26207,-14.76058 13.71692,-14.76058 7.45485,0 13.71692,6.63481 13.71692,14.76058 0,8.1258 -6.26207,14.6861 -13.71692,14.6861 -7.45485,0 -13.71692,-6.5603 -13.71692,-14.6861 z"
         style="font-size:74.54845428px;line-height:1.25;fill:#375452;fill-opacity:1;stroke:#375452;stroke-width:2.29999995;stroke-miterlimit:4;stroke-dasharray:none;stroke-opacity:1"
         id="path995" />
      <path
         d="m 791.31529,1019.2536 c 0,1.0437 0.82003,1.7892 1.78916,1.7892 0.96913,0 1.78916,-0.7455 1.78916,-1.7892 v -19.82987 c 0,-8.12578 -6.63481,-14.83514 -14.83514,-14.83514 -4.54746,0 -8.64762,2.08736 -11.33137,5.29294 v -3.50378 c 0,-0.96913 -0.74548,-1.78916 -1.71461,-1.78916 -1.04368,0 -1.78916,0.82003 -1.78916,1.78916 v 12.4496 0.59638 19.82987 0.4473 c 0,0 0.0745,0.075 0.0745,0.1491 0,0.075 0,0.1491 0.0745,0.2237 0.22365,0.4472 0.67094,0.82 1.19278,0.9691 h 0.44729 c 0.52184,0 1.04368,-0.2237 1.34187,-0.671 0.22365,-0.2236 0.2982,-0.5218 0.37274,-0.82 v -0.2982 -19.82987 c 0.1491,-6.18752 5.14385,-11.25681 11.33137,-11.25681 6.26207,0 11.25682,5.06929 11.25682,11.25681 z"
         style="font-size:74.54845428px;line-height:1.25;fill:#375452;fill-opacity:1;stroke:#375452;stroke-width:2.29999995;stroke-miterlimit:4;stroke-dasharray:none;stroke-opacity:1"
         id="path997" />
      <path
         d="m 838.70944,1019.2536 c 0,0.9692 0.82004,1.7892 1.86372,1.7892 0.96913,0 1.78916,-0.82 1.78916,-1.7892 v -16.4006 -0.7455 -31.45947 c 0,-0.96913 -0.82003,-1.78916 -1.78916,-1.78916 -1.04368,0 -1.86372,0.82003 -1.86372,1.78916 v 21.02266 c -3.20558,-4.32381 -8.27487,-7.15665 -14.01511,-7.15665 -9.84039,0 -17.66798,8.20033 -17.66798,18.33896 0,9.9895 7.82759,18.1898 17.66798,18.1898 5.74024,0 10.80953,-2.7583 14.01511,-7.0821 z m -14.01511,-1.8637 c -7.67849,0 -14.0151,-6.4857 -14.0151,-14.5369 0,-8.12582 6.33661,-14.68608 14.0151,-14.68608 7.5294,0 13.71692,6.26207 14.01511,14.08968 v 1.1928 c -0.29819,7.753 -6.48571,13.9405 -14.01511,13.9405 z"
         style="font-size:74.54845428px;line-height:1.25;fill:#375452;fill-opacity:1;stroke:#375452;stroke-width:2.29999995;stroke-miterlimit:4;stroke-dasharray:none;stroke-opacity:1"
         id="path999" />
      <path
         d="m 887.55033,984.51404 c -0.96913,0 -1.78917,0.74549 -1.78917,1.78917 v 5.36748 c -3.13103,-4.32381 -8.12578,-7.15665 -13.71691,-7.15665 -9.61675,0 -17.29524,8.27488 -17.29524,18.26436 0,9.9895 7.67849,18.2644 17.29524,18.2644 5.59113,0 10.58588,-2.9074 13.71691,-7.2312 v 5.442 c 0,0.9692 0.82004,1.7892 1.78917,1.7892 0.96912,0 1.78916,-0.82 1.78916,-1.7892 v -32.95039 c 0,-1.04368 -0.82004,-1.78917 -1.78916,-1.78917 z m -15.50608,32.95046 c -7.45485,0 -13.71692,-6.4858 -13.71692,-14.6861 0,-8.20032 6.26207,-14.76058 13.71692,-14.76058 7.52939,0 13.71691,6.56026 13.71691,14.76058 0,8.2003 -6.18752,14.6861 -13.71691,14.6861 z"
         style="font-size:74.54845428px;line-height:1.25;fill:#375452;fill-opacity:1;stroke:#375452;stroke-width:2.29999995;stroke-miterlimit:4;stroke-dasharray:none;stroke-opacity:1"
         id="path1001" />
      <path
         d="m 904.85602,1019.2536 c 0,1.0437 0.82003,1.7892 1.86371,1.7892 0.89458,0 1.71461,-0.7455 1.71461,-1.7892 v -16.0279 c 0,-0.1491 0,-0.2982 0.1491,-0.5964 0.52184,-1.491 1.93826,-5.21837 4.39836,-8.49851 2.53465,-3.28013 5.81478,-5.96387 10.58588,-5.96387 0.96913,0 1.78916,-0.82004 1.78916,-1.78917 0,-1.04367 -0.82003,-1.78916 -1.78916,-1.78916 -7.00755,0 -11.8532,4.62201 -14.6115,8.94582 -0.22364,0.29819 -0.37274,0.59638 -0.52184,0.89458 v -8.05124 c 0,-1.04367 -0.82003,-1.78916 -1.71461,-1.78916 -1.04368,0 -1.86371,0.74549 -1.86371,1.78916 z"
         style="font-size:74.54845428px;line-height:1.25;fill:#375452;fill-opacity:1;stroke:#375452;stroke-width:2.29999995;stroke-miterlimit:4;stroke-dasharray:none;stroke-opacity:1"
         id="path1003" />
      <path
         d="m 934.56009,1006.0585 c 0,8.2004 6.63481,14.8352 14.76059,14.9097 4.54746,0 8.57308,-2.0873 11.33137,-5.2184 v 2.3856 c -0.0746,7.5294 -6.18752,13.5678 -13.79146,13.5678 -2.08736,0 -4.17472,-0.5218 -5.96388,-1.4164 -0.89458,-0.2237 -1.86371,0 -2.311,0.8946 -0.44729,0.82 -0.0745,1.8637 0.74548,2.3855 2.311,1.0437 4.84565,1.7146 7.5294,1.7146 9.61675,0 17.36979,-7.6039 17.36979,-17.1461 v -11.4059 -0.671 -19.82984 c 0,-0.22365 -0.0745,-0.52184 -0.22365,-0.74549 -0.0745,-0.22364 -0.29819,-0.44729 -0.44729,-0.59638 -0.29819,-0.1491 -0.59639,-0.2982 -0.89458,-0.37275 h -0.22365 -0.22364 c -0.0746,0 -0.1491,0.0745 -0.22365,0.0745 h -0.1491 c -0.22364,0.0746 -0.52183,0.22365 -0.67093,0.44729 -0.0746,0 -0.0746,0.0745 -0.1491,0.0745 0,0.0746 -0.0746,0.1491 -0.0746,0.22365 -0.22364,0.22364 -0.29819,0.59638 -0.29819,0.89458 v 19.82984 c -0.0746,6.2621 -5.0693,11.2569 -11.33137,11.2569 -6.18752,0 -11.18226,-4.9948 -11.18226,-11.2569 v -19.82984 c 0,-0.96913 -0.82004,-1.71462 -1.86372,-1.71462 -0.89458,0 -1.71461,0.74549 -1.71461,1.71462 z"
         style="font-size:74.54845428px;line-height:1.25;fill:#375452;fill-opacity:1;stroke:#375452;stroke-width:2.29999995;stroke-miterlimit:4;stroke-dasharray:none;stroke-opacity:1"
         id="path1005" />
      <path
         d="m 1002.5239,1013.5879 c 4.3238,3.4293 11.2568,7.4549 19.2335,7.5294 5.2183,0 9.9149,-1.5655 13.4187,-4.1001 3.5038,-2.5347 5.8893,-6.2621 5.8893,-10.4368 0,-4.1747 -2.311,-7.60396 -5.7402,-9.84041 -3.4293,-2.311 -8.0513,-3.80197 -13.2697,-4.7711 h -0.1491 c -4.6965,-0.89458 -8.573,-2.16191 -11.1822,-3.95107 -2.6092,-1.78916 -3.802,-3.72742 -3.8765,-6.33662 0,-2.68374 1.4909,-5.21839 4.1001,-7.15665 2.6092,-1.86371 6.4112,-3.13103 10.6605,-3.13103 5.7402,0 10.2131,2.83284 14.3133,5.51658 0.7454,0.52184 1.7891,0.29819 2.2364,-0.44729 0.5219,-0.82003 0.2982,-1.78916 -0.4473,-2.311 -4.1001,-2.68375 -9.244,-6.03843 -16.1024,-6.03843 -4.9202,0 -9.3186,1.41642 -12.5987,3.80197 -3.2802,2.38555 -5.4421,5.81478 -5.4421,9.76585 0,3.87652 2.1619,7.00756 5.3675,9.09491 3.2056,2.16191 7.4549,3.50378 12.3005,4.39836 h 0.1491 c 5.0693,0.96913 9.244,2.38555 12.0769,4.24926 2.8328,1.93827 4.2492,4.17467 4.2492,7.15667 0,2.9074 -1.5655,5.6657 -4.4729,7.753 -2.8328,2.0874 -6.933,3.4293 -11.4804,3.4293 -6.784,0.075 -13.2697,-3.5784 -17.1462,-6.7094 -0.6709,-0.5964 -1.7146,-0.5218 -2.311,0.2236 -0.5218,0.671 -0.4473,1.7147 0.2237,2.311 z"
         style="font-size:74.54845428px;line-height:1.25;fill:#375452;fill-opacity:1;stroke:#375452;stroke-width:2.29999995;stroke-miterlimit:4;stroke-dasharray:none;stroke-opacity:1"
         id="path1007" />
      <path
         d="m 1069.8388,1021.0428 c 0,0 0,0 0,0 4.3238,0 8.4239,-1.491 11.4804,-3.8765 0.8946,-0.671 1.0437,-1.7892 0.3728,-2.6092 -0.5964,-0.671 -1.6401,-0.8946 -2.4601,-0.2982 -2.6092,2.0128 -5.8894,3.2056 -9.3931,3.2056 -8.4986,0 -15.2079,-6.5603 -15.2079,-14.7606 0,-8.05127 6.7093,-14.68608 15.2079,-14.68608 3.5037,0 6.7839,1.19278 9.3931,3.28013 0.82,0.59639 1.8637,0.37274 2.4601,-0.29819 0.6709,-0.82003 0.5218,-1.93826 -0.2237,-2.4601 -3.2056,-2.53465 -7.3057,-4.02562 -11.6295,-4.02562 -10.4368,0 -18.7863,8.05124 -18.7863,18.18986 0,10.2877 8.3495,18.3389 18.7863,18.3389 z"
         style="font-size:74.54845428px;line-height:1.25;fill:#375452;fill-opacity:1;stroke:#375452;stroke-width:2.29999995;stroke-miterlimit:4;stroke-dasharray:none;stroke-opacity:1"
         id="path1009" />
      <path
         d="m 1123.0151,1019.2536 c 0,0.9692 0.82,1.7892 1.7892,1.7892 1.0437,0 1.8637,-0.82 1.8637,-1.7892 v -20.35171 c 0,-8.42397 -6.8585,-14.38785 -15.2824,-14.38785 -4.622,0 -8.7968,2.08736 -11.5551,5.36749 v -19.2335 c 0,-0.96913 -0.82,-1.78916 -1.8637,-1.78916 -0.9691,0 -1.7891,0.82003 -1.7891,1.78916 v 27.65748 0.59638 20.35171 c 0,0.2237 0,0.3728 0.074,0.5964 0.075,0.2237 0.1491,0.3728 0.2982,0.5964 0.3728,0.3727 0.8946,0.5964 1.4164,0.5964 h 0.2237 0.1491 c 0.074,0 0.1491,-0.075 0.1491,-0.075 0.5218,-0.1491 0.8946,-0.4473 1.1182,-0.8945 0.075,-0.075 0.075,-0.1491 0.1491,-0.2982 0,-0.075 0.074,-0.1491 0.074,-0.2982 v -0.2237 -20.35171 c 0,-6.41116 5.2184,-10.73497 11.5551,-10.73497 6.4111,0 11.6295,4.32381 11.6295,10.73497 z"
         style="font-size:74.54845428px;line-height:1.25;fill:#375452;fill-opacity:1;stroke:#375452;stroke-width:2.29999995;stroke-miterlimit:4;stroke-dasharray:none;stroke-opacity:1"
         id="path1011" />
      <path
         d="m 1140.1822,1002.7784 c 0,9.915 7.7531,18.2644 17.2953,18.2644 9.6167,0 17.2952,-8.3494 17.2952,-18.2644 0,-9.91493 -7.6785,-18.26436 -17.2952,-18.26436 -9.5422,0 -17.2953,8.34943 -17.2953,18.26436 z m 3.5784,0 c 0,-8.12577 6.262,-14.76058 13.7169,-14.76058 7.4548,0 13.7169,6.63481 13.7169,14.76058 0,8.1258 -6.2621,14.6861 -13.7169,14.6861 -7.4549,0 -13.7169,-6.5603 -13.7169,-14.6861 z"
         style="font-size:74.54845428px;line-height:1.25;fill:#375452;fill-opacity:1;stroke:#375452;stroke-width:2.29999995;stroke-miterlimit:4;stroke-dasharray:none;stroke-opacity:1"
         id="path1013" />
      <path
         d="m 1186.775,1002.7784 c 0,9.915 7.753,18.2644 17.2953,18.2644 9.6167,0 17.2952,-8.3494 17.2952,-18.2644 0,-9.91493 -7.6785,-18.26436 -17.2952,-18.26436 -9.5423,0 -17.2953,8.34943 -17.2953,18.26436 z m 3.5783,0 c 0,-8.12577 6.2621,-14.76058 13.717,-14.76058 7.4548,0 13.7169,6.63481 13.7169,14.76058 0,8.1258 -6.2621,14.6861 -13.7169,14.6861 -7.4549,0 -13.717,-6.5603 -13.717,-14.6861 z"
         style="font-size:74.54845428px;line-height:1.25;fill:#375452;fill-opacity:1;stroke:#375452;stroke-width:2.29999995;stroke-miterlimit:4;stroke-dasharray:none;stroke-opacity:1"
         id="path1015" />
      <path
         d="m 1235.6042,1019.2536 c 0,0.9692 0.8201,1.7892 1.7892,1.7892 1.0437,0 1.8637,-0.82 1.8637,-1.7892 v -48.60557 c 0,-0.96913 -0.82,-1.78916 -1.8637,-1.78916 -0.9691,0 -1.7892,0.82003 -1.7892,1.78916 z"
         style="font-size:74.54845428px;line-height:1.25;fill:#375452;fill-opacity:1;stroke:#375452;stroke-width:2.29999995;stroke-miterlimit:4;stroke-dasharray:none;stroke-opacity:1"
         id="path1017" />
    </g>
  </g>
</svg>
