<?xml version="1.0" encoding="UTF-8" standalone="no"?>
<!-- Created with Inkscape (http://www.inkscape.org/) -->

<svg
   xmlns:dc="http://purl.org/dc/elements/1.1/"
   xmlns:cc="http://creativecommons.org/ns#"
   xmlns:rdf="http://www.w3.org/1999/02/22-rdf-syntax-ns#"
   xmlns:svg="http://www.w3.org/2000/svg"
   xmlns="http://www.w3.org/2000/svg"
   xmlns:xlink="http://www.w3.org/1999/xlink"
   xmlns:sodipodi="http://sodipodi.sourceforge.net/DTD/sodipodi-0.dtd"
   xmlns:inkscape="http://www.inkscape.org/namespaces/inkscape"
   width="1253.7603"
   height="136.00005"
   id="svg2"
   version="1.1"
   inkscape:version="0.48.4 r9939"
   sodipodi:docname="iHub_type-fullname_hicolour@128px.svg"
   inkscape:export-filename="/home/alin_k/Design/Brands/iHub/Brand/png/iHub_icon-master_hicolour@128px.png"
   inkscape:export-xdpi="180"
   inkscape:export-ydpi="180">
  <defs
     id="defs4">
    <linearGradient
       inkscape:collect="always"
       id="linearGradient3882">
      <stop
         style="stop-color:#35514f;stop-opacity:1;"
         offset="0"
         id="stop3884" />
      <stop
         style="stop-color:#466b69;stop-opacity:1"
         offset="1"
         id="stop3886" />
    </linearGradient>
    <linearGradient
       inkscape:collect="always"
       id="linearGradient3824">
      <stop
         style="stop-color:#fcff5d;stop-opacity:1"
         offset="0"
         id="stop3826" />
      <stop
         style="stop-color:#ff8846;stop-opacity:1"
         offset="1"
         id="stop3828" />
    </linearGradient>
    <linearGradient
       inkscape:collect="always"
       id="linearGradient3816">
      <stop
         style="stop-color:#55bd7a;stop-opacity:1"
         offset="0"
         id="stop3818" />
      <stop
         style="stop-color:#5efa96;stop-opacity:1"
         offset="1"
         id="stop3820" />
    </linearGradient>
    <linearGradient
       id="linearGradient3793"
       inkscape:collect="always">
      <stop
         id="stop3795"
         offset="0"
         style="stop-color:#ff580a;stop-opacity:1" />
      <stop
         id="stop3797"
         offset="1"
         style="stop-color:#fe705a;stop-opacity:1" />
    </linearGradient>
    <linearGradient
       inkscape:collect="always"
       xlink:href="#linearGradient3793"
       id="linearGradient3814"
       x1="126.12076"
       y1="1043.3527"
       x2="160.22067"
       y2="975.67242"
       gradientUnits="userSpaceOnUse" />
    <linearGradient
       inkscape:collect="always"
       xlink:href="#linearGradient3882"
       id="linearGradient3908"
       gradientUnits="userSpaceOnUse"
       gradientTransform="matrix(0.86440825,0,0,0.86440825,145.63221,8.08739)"
       x1="-118.43305"
       y1="5.7780933"
       x2="-55.541393"
       y2="148.96722" />
    <linearGradient
       inkscape:collect="always"
       xlink:href="#linearGradient3816"
       id="linearGradient3911"
       gradientUnits="userSpaceOnUse"
       gradientTransform="matrix(0.86440825,0,0,0.86440825,-405.21239,558.90111)"
       x1="501.09921"
       y1="510.22379"
       x2="542.74628"
       y2="493.79523" />
    <linearGradient
       inkscape:collect="always"
       xlink:href="#linearGradient3882"
       id="linearGradient3917"
       gradientUnits="userSpaceOnUse"
       gradientTransform="matrix(0.93734441,0,0,0.93734441,139.10218,942.12205)"
       x1="-118.43305"
       y1="5.7780933"
       x2="-55.541393"
       y2="148.96722" />
    <linearGradient
       inkscape:collect="always"
       xlink:href="#linearGradient3816"
       id="linearGradient3920"
       gradientUnits="userSpaceOnUse"
       gradientTransform="matrix(0.93734441,0,0,0.93734441,-443.6676,522.02829)"
       x1="501.09921"
       y1="510.22379"
       x2="542.74628"
       y2="493.79523" />
    <radialGradient
       inkscape:collect="always"
       xlink:href="#linearGradient3824"
       id="radialGradient3923"
       gradientUnits="userSpaceOnUse"
       gradientTransform="matrix(1.2017755,0,0,1.2017755,-583.09783,383.15888)"
       cx="527.28387"
       cy="525.16302"
       fx="527.28387"
       fy="525.16302"
       r="51.136089" />
    <radialGradient
       inkscape:collect="always"
       xlink:href="#linearGradient3824"
       id="radialGradient3933"
       cx="63.900429"
       cy="988.36218"
       fx="63.900429"
       fy="988.36218"
       r="77.321426"
       gradientTransform="matrix(1.0323889,0,0,1.0323889,-15.391095,-18.154832)"
       gradientUnits="userSpaceOnUse" />
    <linearGradient
       inkscape:collect="always"
       xlink:href="#linearGradient3882"
       id="linearGradient3785"
       x1="145.46196"
       y1="18.903526"
       x2="220.71832"
       y2="18.903526"
       gradientUnits="userSpaceOnUse" />
  </defs>
  <sodipodi:namedview
     id="base"
     pagecolor="#ffffff"
     bordercolor="#666666"
     borderopacity="1.0"
     inkscape:pageopacity="0.0"
     inkscape:pageshadow="2"
     inkscape:zoom="0.7"
     inkscape:cx="636.34089"
     inkscape:cy="246.53142"
     inkscape:document-units="px"
     inkscape:current-layer="layer1"
     showgrid="false"
     showguides="true"
     inkscape:guide-bbox="true"
     fit-margin-top="8"
     fit-margin-left="8"
     fit-margin-right="8"
     fit-margin-bottom="8"
     inkscape:window-width="1280"
     inkscape:window-height="1003"
     inkscape:window-x="768"
     inkscape:window-y="21"
     inkscape:window-maximized="1" />
  <metadata
     id="metadata7">
    <rdf:RDF>
      <cc:Work
         rdf:about="">
        <dc:format>image/svg+xml</dc:format>
        <dc:type
           rdf:resource="http://purl.org/dc/dcmitype/StillImage" />
        <dc:title />
      </cc:Work>
    </rdf:RDF>
  </metadata>
  <g
     inkscape:label="Layer 1"
     inkscape:groupmode="layer"
     id="layer1"
     transform="translate(5.3531285,-934.21935)">
    <path
       style="fill:url(#radialGradient3923);fill-opacity:1;stroke:none"
       d="m 98.511128,1014.287 c 0,26.4722 -21.459957,47.9321 -47.932129,47.9321 -26.472181,0 -47.9321275,-21.4599 -47.9321275,-47.9321 0,-26.47226 21.4599465,-47.93221 47.9321275,-47.93221 26.472172,0 47.932129,21.45995 47.932129,47.93221 z"
       id="path2990"
       inkscape:connector-curvature="0" />
    <path
       style="fill:url(#linearGradient3920);fill-opacity:1;stroke:none"
       d="m 49.779585,1038.5822 c 0,0 32.11237,0.2668 32.359369,-36.5989 0.167898,-25.04375 -32.359369,-56.73632 -32.359369,-56.73632 0,0 -30.761206,31.65246 -30.761206,56.73632 0,36.1646 30.761206,36.5989 30.761206,36.5989 z"
       inkscape:connector-curvature="0"
       sodipodi:nodetypes="cscsc"
       id="path3826" />
    <path
       inkscape:connector-curvature="0"
       d="m 46.861632,1062.0436 c 1.23378,0.095 2.461907,0.1758 3.720086,0.1758 0.772896,0 1.520841,-0.081 2.284777,-0.1172 l 0,-20.7387 c 3.327385,-0.392 8.887159,-1.5112 14.470254,-4.6575 8.8143,-4.9672 17.68019,-15.4048 17.809544,-34.7111 0.0927,-13.83253 -8.423905,-28.29949 -16.696448,-39.57348 -8.272542,-11.274 -16.579279,-19.33273 -16.579279,-19.33273 a 3.0083131,3.0083131 0 0 0 -2.460529,-0.84947 3.0083131,3.0083131 0 0 0 -1.786813,0.90805 c 0,0 -7.857777,8.06513 -15.700519,19.33273 -7.842742,11.2676 -15.905563,25.71412 -15.905563,39.4857 0,18.9352 8.411279,29.372 16.842908,34.4474 5.435941,3.2722 10.822447,4.4551 14.001582,4.8918 l 0,20.7387 z m 2.987785,-112.3935 c 2.408404,2.4613 7.537524,7.85494 13.767246,16.34494 7.949112,10.83322 15.599933,24.73017 15.524767,35.94126 -0.117645,17.5596 -7.430245,25.4106 -14.733882,29.5265 -4.390662,2.4743 -8.742874,3.4479 -11.541053,3.8372 l 0,-12.742 a 3.0086808,3.0086808 0 0 0 -3.04637,-3.0757 3.0086808,3.0086808 0 0 0 -2.958493,3.0757 l 0,12.6834 c -2.658037,-0.4419 -6.753538,-1.4898 -10.896629,-3.9837 -6.948975,-4.1829 -13.942998,-12.0625 -13.942998,-29.292 0,-11.31234 7.313189,-25.22895 14.851051,-36.05854 5.865254,-8.42655 10.664045,-13.75869 12.976362,-16.25706 z m 0.410088,43.82085 c -8.958444,-0.17712 -17.589324,4.9223 -21.471045,13.59155 a 3.0083131,3.0083131 0 1 0 5.477606,2.4605 c 3.846927,-8.5915 13.84619,-12.40025 22.437682,-8.5532 3.716393,1.664 6.70864,4.6022 8.4361,8.2895 a 3.0083131,3.0083131 0 1 0 5.448314,-2.5483 c -2.338796,-4.9923 -6.392323,-8.99525 -11.423885,-11.24819 -2.889729,-1.29391 -5.918627,-1.93282 -8.904772,-1.99186 z m -0.205044,9.72495 c -5.168461,-0.098 -10.155414,2.8292 -12.390521,7.821 a 3.0083131,3.0083131 0 1 0 5.477606,2.4606 c 1.651461,-3.6883 5.890198,-5.2837 9.578489,-3.6323 1.587683,0.711 2.894191,1.9691 3.632209,3.5444 a 3.0083131,3.0083131 0 1 0 5.419023,-2.5777 c -1.349355,-2.8803 -3.687832,-5.1738 -6.590702,-6.4736 -1.663919,-0.745 -3.403282,-1.1096 -5.126103,-1.1424 z"
       style="font-size:medium;font-style:normal;font-variant:normal;font-weight:normal;font-stretch:normal;text-indent:0;text-align:start;text-decoration:none;line-height:normal;letter-spacing:normal;word-spacing:normal;text-transform:none;direction:ltr;block-progression:tb;writing-mode:lr-tb;text-anchor:start;baseline-shift:baseline;color:#000000;fill:url(#linearGradient3917);fill-opacity:1;stroke:none;stroke-width:6.16807938;marker:none;visibility:visible;display:inline;overflow:visible;enable-background:accumulate;font-family:Sans;-inkscape-font-specification:Sans"
       id="path3785" />
    <text
       xml:space="preserve"
       style="font-size:74.54845428px;font-style:normal;font-variant:normal;font-weight:normal;font-stretch:normal;line-height:125%;letter-spacing:0px;word-spacing:0px;fill:#4b6a68;fill-opacity:1;stroke:#4b6a68;stroke-width:2.29999995;stroke-miterlimit:4;stroke-opacity:1;stroke-dasharray:none;font-family:Quicksand;-inkscape-font-specification:Quicksand"
       x="121.57078"
       y="1021.0428"
       id="text3005"
       sodipodi:linespacing="125%"><tspan
         sodipodi:role="line"
         id="tspan3007"
         x="121.57078"
         y="1021.0428"
         style="stroke-width:2.29999995;stroke-miterlimit:4;stroke-dasharray:none">Inquiry Hub Secondary School</tspan></text>
  </g>
</svg>
