<?xml version="1.0" encoding="UTF-8" standalone="no"?>
<!-- Created with Inkscape (http://www.inkscape.org/) -->

<svg
   xmlns:dc="http://purl.org/dc/elements/1.1/"
   xmlns:cc="http://creativecommons.org/ns#"
   xmlns:rdf="http://www.w3.org/1999/02/22-rdf-syntax-ns#"
   xmlns:svg="http://www.w3.org/2000/svg"
   xmlns="http://www.w3.org/2000/svg"
   xmlns:xlink="http://www.w3.org/1999/xlink"
   xmlns:sodipodi="http://sodipodi.sourceforge.net/DTD/sodipodi-0.dtd"
   xmlns:inkscape="http://www.inkscape.org/namespaces/inkscape"
   width="136.53334"
   height="136.53334"
   id="svg2"
   version="1.1"
   inkscape:version="0.92.1 unknown"
   sodipodi:docname="iHub_icon-social_hicolour@128px.svg"
   inkscape:export-filename="/home/alin_k/Design/Brands/iHub/Brand/png/iHub_icon-social_hicolour@128px.png"
   inkscape:export-xdpi="719.99994"
   inkscape:export-ydpi="719.99994">
  <defs
     id="defs4">
    <linearGradient
       inkscape:collect="always"
       id="linearGradient3882">
      <stop
         style="stop-color:#35514f;stop-opacity:1;"
         offset="0"
         id="stop3884" />
      <stop
         style="stop-color:#466b69;stop-opacity:1"
         offset="1"
         id="stop3886" />
    </linearGradient>
    <linearGradient
       inkscape:collect="always"
       id="linearGradient3824">
      <stop
         style="stop-color:#fcff5d;stop-opacity:1"
         offset="0"
         id="stop3826" />
      <stop
         style="stop-color:#ff8846;stop-opacity:1"
         offset="1"
         id="stop3828" />
    </linearGradient>
    <linearGradient
       inkscape:collect="always"
       id="linearGradient3816">
      <stop
         style="stop-color:#55bd7a;stop-opacity:1"
         offset="0"
         id="stop3818" />
      <stop
         style="stop-color:#5efa96;stop-opacity:1"
         offset="1"
         id="stop3820" />
    </linearGradient>
    <linearGradient
       id="linearGradient3793"
       inkscape:collect="always">
      <stop
         id="stop3795"
         offset="0"
         style="stop-color:#ff580a;stop-opacity:1" />
      <stop
         id="stop3797"
         offset="1"
         style="stop-color:#fe705a;stop-opacity:1" />
    </linearGradient>
    <linearGradient
       inkscape:collect="always"
       xlink:href="#linearGradient3793"
       id="linearGradient3814"
       x1="126.12076"
       y1="1043.3527"
       x2="160.22067"
       y2="975.67242"
       gradientUnits="userSpaceOnUse" />
    <linearGradient
       inkscape:collect="always"
       xlink:href="#linearGradient3882"
       id="linearGradient3908"
       gradientUnits="userSpaceOnUse"
       gradientTransform="matrix(0.92203547,0,0,0.92203547,141.02529,1009.3939)"
       x1="-118.43305"
       y1="5.7780933"
       x2="-55.541393"
       y2="148.96722" />
    <linearGradient
       inkscape:collect="always"
       xlink:href="#linearGradient3816"
       id="linearGradient3911"
       gradientUnits="userSpaceOnUse"
       gradientTransform="matrix(0.92203547,0,0,0.92203547,-432.22655,596.16118)"
       x1="501.09921"
       y1="510.22379"
       x2="542.74628"
       y2="493.79523" />
    <linearGradient
       inkscape:collect="always"
       xlink:href="#linearGradient3882"
       id="linearGradient3917"
       gradientUnits="userSpaceOnUse"
       gradientTransform="translate(-125.25892,924.36218)"
       x1="-118.43305"
       y1="5.7780933"
       x2="-55.541393"
       y2="148.96722" />
    <linearGradient
       inkscape:collect="always"
       xlink:href="#linearGradient3816"
       id="linearGradient3920"
       gradientUnits="userSpaceOnUse"
       gradientTransform="translate(-746.9832,476.18779)"
       x1="501.09921"
       y1="510.22379"
       x2="542.74628"
       y2="493.79523" />
    <radialGradient
       inkscape:collect="always"
       xlink:href="#linearGradient3824"
       id="radialGradient3923"
       gradientUnits="userSpaceOnUse"
       gradientTransform="matrix(1.2821066,0,0,1.2821066,-895.73346,328.03583)"
       cx="527.28387"
       cy="525.16302"
       fx="527.28387"
       fy="525.16302"
       r="51.136089" />
    <radialGradient
       inkscape:collect="always"
       xlink:href="#linearGradient3824"
       id="radialGradient3933"
       cx="63.900429"
       cy="988.36218"
       fx="63.900429"
       fy="988.36218"
       r="77.321426"
       gradientTransform="matrix(1.1012148,0,0,1.1012148,-16.417168,-19.365154)"
       gradientUnits="userSpaceOnUse" />
  </defs>
  <sodipodi:namedview
     id="base"
     pagecolor="#ffffff"
     bordercolor="#666666"
     borderopacity="1.0"
     inkscape:pageopacity="0.0"
     inkscape:pageshadow="2"
     inkscape:zoom="2.8"
     inkscape:cx="61.692162"
     inkscape:cy="91.296581"
     inkscape:document-units="px"
     inkscape:current-layer="layer1"
     showgrid="false"
     showguides="true"
     inkscape:guide-bbox="true"
     fit-margin-top="0"
     fit-margin-left="0"
     fit-margin-right="0"
     fit-margin-bottom="0"
     inkscape:window-width="1280"
     inkscape:window-height="1000"
     inkscape:window-x="768"
     inkscape:window-y="24"
     inkscape:window-maximized="1">
    <sodipodi:guide
       orientation="0,1"
       position="-237.87474,297.44766"
       id="guide3891"
       inkscape:locked="false" />
  </sodipodi:namedview>
  <metadata
     id="metadata7">
    <rdf:RDF>
      <cc:Work
         rdf:about="">
        <dc:format>image/svg+xml</dc:format>
        <dc:type
           rdf:resource="http://purl.org/dc/dcmitype/StillImage" />
        <dc:title />
      </cc:Work>
    </rdf:RDF>
  </metadata>
  <g
     inkscape:label="Layer 1"
     inkscape:groupmode="layer"
     id="layer1"
     transform="translate(14.315733,-1000.7673)">
    <rect
       style="fill:url(#radialGradient3933);fill-opacity:1;fill-rule:nonzero;stroke:none;stroke-width:1.06666672"
       id="rect3925"
       width="136.53334"
       height="136.53334"
       x="-14.315733"
       y="1000.7673" />
    <path
       id="path3897"
       sodipodi:nodetypes="cscsc"
       inkscape:connector-curvature="0"
       d="m 53.161533,1104.2785 c 0,0 31.587902,0.2625 31.830868,-36.0011 0.165154,-24.6347 -31.830868,-55.8096 -31.830868,-55.8096 0,0 -30.258807,31.1355 -30.258807,55.8096 0,35.574 30.258807,36.0011 30.258807,36.0011 z"
       style="fill:url(#linearGradient3911);fill-opacity:1;stroke:none;stroke-width:1.06666672" />
    <path
       style="color:#000000;font-style:normal;font-variant:normal;font-weight:normal;font-stretch:normal;font-size:medium;line-height:normal;font-family:Sans;-inkscape-font-specification:Sans;text-indent:0;text-align:start;text-decoration:none;text-decoration-line:none;letter-spacing:normal;word-spacing:normal;text-transform:none;writing-mode:lr-tb;direction:ltr;baseline-shift:baseline;text-anchor:start;display:inline;overflow:visible;visibility:visible;fill:url(#linearGradient3908);fill-opacity:1;stroke:none;stroke-width:6.57928467;marker:none;enable-background:accumulate"
       d="m 52.784267,1009.5007 c -0.664296,0.087 -1.271276,0.4148 -1.733334,0.9 0,0 -7.752014,7.9497 -15.466666,19.0333 -7.714652,11.0836 -15.633334,25.2867 -15.633334,38.8333 0,18.6259 8.272746,28.8743 16.566667,33.8667 5.347159,3.2188 10.639454,4.4038 13.766667,4.8333 v 11.0334 3.5428 2.0667 c -0.03487,1.5551 1.378027,3.0077 2.933333,3.0333 1.584148,0.02 3.002091,-1.4494 2.966667,-3.0333 v -2 -3.6762 -10.9333 c 3.273042,-0.3856 8.741422,-1.4718 14.233333,-4.5667 8.670341,-4.886 17.406093,-15.1424 17.533333,-34.1333 0.09119,-13.6067 -8.295899,-27.8435 -16.433333,-38.9334 -8.137433,-11.0898 -16.3,-19.0333 -16.3,-19.0333 -0.627594,-0.6207 -1.556499,-0.9346 -2.433333,-0.8333 z m 0.433333,7.3 c 2.369069,2.421 7.43869,7.7153 13.566667,16.0666 7.819285,10.6563 15.340604,24.3387 15.266666,35.3667 -0.115724,17.2727 -7.315647,24.9847 -14.5,29.0333 -4.318952,2.4339 -8.614187,3.3838 -11.366666,3.7667 v -12.5333 c 0.03542,-1.5839 -1.382519,-3.0203 -2.966667,-3 -1.555306,0.026 -2.968197,1.4449 -2.933333,3 v 12.5 c -2.614625,-0.4347 -6.624576,-1.4803 -10.7,-3.9334 -6.835483,-4.1146 -13.733334,-11.8518 -13.733334,-28.8 0,-11.1275 7.185248,-24.8139 14.6,-35.4666 5.769462,-8.289 10.492117,-13.5425 12.766667,-16 z m 0.4,43.1 c -8.812133,-0.1743 -17.281676,4.8391 -21.1,13.3666 -0.75073,1.4255 -0.06965,3.4399 1.4,4.1 1.469651,0.6602 3.432982,-0.1587 4,-1.6666 3.784098,-8.4512 13.615492,-12.2175 22.066667,-8.4334 3.655695,1.6369 6.600753,4.5396 8.3,8.1667 0.631845,1.4409 2.541512,2.1665 3.966666,1.5 1.425153,-0.6667 2.067638,-2.5915 1.366667,-4 -2.300598,-4.9108 -6.283948,-8.8505 -11.233333,-11.0667 -2.842534,-1.2728 -5.829293,-1.9086 -8.766667,-1.9666 z m -0.2,9.5666 c -5.084049,-0.097 -9.968064,2.7898 -12.166667,7.7 -0.750678,1.4256 -0.06962,3.4065 1.4,4.0667 1.469622,0.66 3.399608,-0.1587 3.966667,-1.6667 1.624487,-3.628 5.805281,-5.1911 9.433333,-3.5666 1.561754,0.6994 2.840703,1.9504 3.566667,3.5 0.588501,1.5102 2.569623,2.2962 4.033333,1.6 1.463709,-0.6964 2.10034,-2.7239 1.3,-4.1334 -1.327316,-2.8333 -3.611205,-5.088 -6.466666,-6.3666 -1.636743,-0.7328 -3.371984,-1.1012 -5.066667,-1.1334 z"
       id="path3899"
       inkscape:connector-curvature="0"
       sodipodi:nodetypes="ccsscccccccccccsscccsssccccccsscscscscccsscccccccccc" />
  </g>
</svg>
