<?xml version="1.0" encoding="UTF-8" standalone="no"?>
<!-- Created with Inkscape (http://www.inkscape.org/) -->

<svg
   xmlns:dc="http://purl.org/dc/elements/1.1/"
   xmlns:cc="http://creativecommons.org/ns#"
   xmlns:rdf="http://www.w3.org/1999/02/22-rdf-syntax-ns#"
   xmlns:svg="http://www.w3.org/2000/svg"
   xmlns="http://www.w3.org/2000/svg"
   xmlns:xlink="http://www.w3.org/1999/xlink"
   xmlns:sodipodi="http://sodipodi.sourceforge.net/DTD/sodipodi-0.dtd"
   xmlns:inkscape="http://www.inkscape.org/namespaces/inkscape"
   width="560.25812"
   height="136.00005"
   id="svg2"
   version="1.1"
   inkscape:version="0.92.3 (2405546, 2018-03-11)"
   sodipodi:docname="iHub_type-halfname_hicolour@128px.svg"
   inkscape:export-filename="/home/alin_k/Design/Brands/iHub/Brand/png/iHub_icon-master_hicolour@128px.png"
   inkscape:export-xdpi="180"
   inkscape:export-ydpi="180">
  <defs
     id="defs4">
    <linearGradient
       inkscape:collect="always"
       id="linearGradient3882">
      <stop
         style="stop-color:#35514f;stop-opacity:1;"
         offset="0"
         id="stop3884" />
      <stop
         style="stop-color:#466b69;stop-opacity:1"
         offset="1"
         id="stop3886" />
    </linearGradient>
    <linearGradient
       inkscape:collect="always"
       id="linearGradient3824">
      <stop
         style="stop-color:#fcff5d;stop-opacity:1"
         offset="0"
         id="stop3826" />
      <stop
         style="stop-color:#ff8846;stop-opacity:1"
         offset="1"
         id="stop3828" />
    </linearGradient>
    <linearGradient
       inkscape:collect="always"
       id="linearGradient3816">
      <stop
         style="stop-color:#55bd7a;stop-opacity:1"
         offset="0"
         id="stop3818" />
      <stop
         style="stop-color:#5efa96;stop-opacity:1"
         offset="1"
         id="stop3820" />
    </linearGradient>
    <linearGradient
       id="linearGradient3793"
       inkscape:collect="always">
      <stop
         id="stop3795"
         offset="0"
         style="stop-color:#ff580a;stop-opacity:1" />
      <stop
         id="stop3797"
         offset="1"
         style="stop-color:#fe705a;stop-opacity:1" />
    </linearGradient>
    <linearGradient
       inkscape:collect="always"
       xlink:href="#linearGradient3793"
       id="linearGradient3814"
       x1="126.12076"
       y1="1043.3527"
       x2="160.22067"
       y2="975.67242"
       gradientUnits="userSpaceOnUse" />
    <linearGradient
       inkscape:collect="always"
       xlink:href="#linearGradient3882"
       id="linearGradient3908"
       gradientUnits="userSpaceOnUse"
       gradientTransform="matrix(0.86440825,0,0,0.86440825,145.63221,8.08739)"
       x1="-118.43305"
       y1="5.7780933"
       x2="-55.541393"
       y2="148.96722" />
    <linearGradient
       inkscape:collect="always"
       xlink:href="#linearGradient3816"
       id="linearGradient3911"
       gradientUnits="userSpaceOnUse"
       gradientTransform="matrix(0.86440825,0,0,0.86440825,-405.21239,558.90111)"
       x1="501.09921"
       y1="510.22379"
       x2="542.74628"
       y2="493.79523" />
    <linearGradient
       inkscape:collect="always"
       xlink:href="#linearGradient3882"
       id="linearGradient3917"
       gradientUnits="userSpaceOnUse"
       gradientTransform="matrix(0.93734441,0,0,0.93734441,139.10218,942.12205)"
       x1="-118.43305"
       y1="5.7780933"
       x2="-55.541393"
       y2="148.96722" />
    <linearGradient
       inkscape:collect="always"
       xlink:href="#linearGradient3816"
       id="linearGradient3920"
       gradientUnits="userSpaceOnUse"
       gradientTransform="matrix(0.93734441,0,0,0.93734441,-443.6676,522.02829)"
       x1="501.09921"
       y1="510.22379"
       x2="542.74628"
       y2="493.79523" />
    <radialGradient
       inkscape:collect="always"
       xlink:href="#linearGradient3824"
       id="radialGradient3923"
       gradientUnits="userSpaceOnUse"
       gradientTransform="matrix(1.2017755,0,0,1.2017755,-583.09783,383.15888)"
       cx="527.28387"
       cy="525.16302"
       fx="527.28387"
       fy="525.16302"
       r="51.136089" />
    <radialGradient
       inkscape:collect="always"
       xlink:href="#linearGradient3824"
       id="radialGradient3933"
       cx="63.900429"
       cy="988.36218"
       fx="63.900429"
       fy="988.36218"
       r="77.321426"
       gradientTransform="matrix(1.0323889,0,0,1.0323889,-15.391095,-18.154832)"
       gradientUnits="userSpaceOnUse" />
  </defs>
  <sodipodi:namedview
     id="base"
     pagecolor="#ffffff"
     bordercolor="#666666"
     borderopacity="1.0"
     inkscape:pageopacity="0.0"
     inkscape:pageshadow="2"
     inkscape:zoom="1.4"
     inkscape:cx="151.22487"
     inkscape:cy="32.839063"
     inkscape:document-units="px"
     inkscape:current-layer="text3005"
     showgrid="false"
     showguides="true"
     inkscape:guide-bbox="true"
     fit-margin-top="8"
     fit-margin-left="8"
     fit-margin-right="8"
     fit-margin-bottom="8"
     inkscape:window-width="1680"
     inkscape:window-height="1050"
     inkscape:window-x="0"
     inkscape:window-y="0"
     inkscape:window-maximized="0" />
  <metadata
     id="metadata7">
    <rdf:RDF>
      <cc:Work
         rdf:about="">
        <dc:format>image/svg+xml</dc:format>
        <dc:type
           rdf:resource="http://purl.org/dc/dcmitype/StillImage" />
        <dc:title />
      </cc:Work>
    </rdf:RDF>
  </metadata>
  <g
     inkscape:label="Layer 1"
     inkscape:groupmode="layer"
     id="layer1"
     transform="translate(5.3531285,-934.21935)">
    <path
       style="fill:url(#radialGradient3923);fill-opacity:1;stroke:none"
       d="m 98.511128,1014.287 c 0,26.4722 -21.459957,47.9321 -47.932129,47.9321 -26.472181,0 -47.9321275,-21.4599 -47.9321275,-47.9321 0,-26.47226 21.4599465,-47.93221 47.9321275,-47.93221 26.472172,0 47.932129,21.45995 47.932129,47.93221 z"
       id="path2990"
       inkscape:connector-curvature="0" />
    <path
       style="fill:url(#linearGradient3920);fill-opacity:1;stroke:none"
       d="m 49.779585,1038.5822 c 0,0 32.11237,0.2668 32.359369,-36.5989 0.167898,-25.04375 -32.359369,-56.73632 -32.359369,-56.73632 0,0 -30.761206,31.65246 -30.761206,56.73632 0,36.1646 30.761206,36.5989 30.761206,36.5989 z"
       inkscape:connector-curvature="0"
       sodipodi:nodetypes="cscsc"
       id="path3826" />
    <path
       inkscape:connector-curvature="0"
       d="m 46.861632,1062.0436 c 1.23378,0.095 2.461907,0.1758 3.720086,0.1758 0.772896,0 1.520841,-0.081 2.284777,-0.1172 v -20.7387 c 3.327385,-0.392 8.887159,-1.5112 14.470254,-4.6575 8.8143,-4.9672 17.68019,-15.4048 17.809544,-34.7111 0.0927,-13.83253 -8.423905,-28.29949 -16.696448,-39.57348 -8.272542,-11.274 -16.579279,-19.33273 -16.579279,-19.33273 a 3.0083131,3.0083131 0 0 0 -2.460529,-0.84947 3.0083131,3.0083131 0 0 0 -1.786813,0.90805 c 0,0 -7.857777,8.06513 -15.700519,19.33273 -7.842742,11.2676 -15.905563,25.71412 -15.905563,39.4857 0,18.9352 8.411279,29.372 16.842908,34.4474 5.435941,3.2722 10.822447,4.4551 14.001582,4.8918 z m 2.987785,-112.3935 c 2.408404,2.4613 7.537524,7.85494 13.767246,16.34494 7.949112,10.83322 15.599933,24.73017 15.524767,35.94126 -0.117645,17.5596 -7.430245,25.4106 -14.733882,29.5265 -4.390662,2.4743 -8.742874,3.4479 -11.541053,3.8372 v -12.742 a 3.0086808,3.0086808 0 0 0 -3.04637,-3.0757 3.0086808,3.0086808 0 0 0 -2.958493,3.0757 v 12.6834 c -2.658037,-0.4419 -6.753538,-1.4898 -10.896629,-3.9837 -6.948975,-4.1829 -13.942998,-12.0625 -13.942998,-29.292 0,-11.31234 7.313189,-25.22895 14.851051,-36.05854 5.865254,-8.42655 10.664045,-13.75869 12.976362,-16.25706 z m 0.410088,43.82085 c -8.958444,-0.17712 -17.589324,4.9223 -21.471045,13.59155 a 3.0083131,3.0083131 0 1 0 5.477606,2.4605 c 3.846927,-8.5915 13.84619,-12.40025 22.437682,-8.5532 3.716393,1.664 6.70864,4.6022 8.4361,8.2895 a 3.0083131,3.0083131 0 1 0 5.448314,-2.5483 c -2.338796,-4.9923 -6.392323,-8.99525 -11.423885,-11.24819 -2.889729,-1.29391 -5.918627,-1.93282 -8.904772,-1.99186 z m -0.205044,9.72495 c -5.168461,-0.098 -10.155414,2.8292 -12.390521,7.821 a 3.0083131,3.0083131 0 1 0 5.477606,2.4606 c 1.651461,-3.6883 5.890198,-5.2837 9.578489,-3.6323 1.587683,0.711 2.894191,1.9691 3.632209,3.5444 a 3.0083131,3.0083131 0 1 0 5.419023,-2.5777 c -1.349355,-2.8803 -3.687832,-5.1738 -6.590702,-6.4736 -1.663919,-0.745 -3.403282,-1.1096 -5.126103,-1.1424 z"
       style="color:#000000;font-style:normal;font-variant:normal;font-weight:normal;font-stretch:normal;font-size:medium;line-height:normal;font-family:Sans;-inkscape-font-specification:Sans;text-indent:0;text-align:start;text-decoration:none;text-decoration-line:none;letter-spacing:normal;word-spacing:normal;text-transform:none;writing-mode:lr-tb;direction:ltr;baseline-shift:baseline;text-anchor:start;display:inline;overflow:visible;visibility:visible;fill:url(#linearGradient3917);fill-opacity:1;stroke:none;stroke-width:6.16807938;marker:none;enable-background:accumulate"
       id="path3785" />
    <g
       aria-label="Inquiry Hub"
       style="font-style:normal;font-variant:normal;font-weight:normal;font-stretch:normal;line-height:0%;font-family:Quicksand;-inkscape-font-specification:Quicksand;letter-spacing:0px;word-spacing:0px;fill:#4b6a68;fill-opacity:1;stroke:#4b6a68;stroke-width:2.29999995;stroke-miterlimit:4;stroke-dasharray:none;stroke-opacity:1"
       id="text3005">
      <path
         d="m 129.84566,1018.8809 c 0,0.9692 0.82003,1.7892 1.78916,1.7892 1.04368,0 1.86371,-0.82 1.86371,-1.7892 v -48.60555 c 0,-0.96913 -0.82003,-1.78916 -1.86371,-1.78916 -0.96913,0 -1.78916,0.82003 -1.78916,1.78916 z"
         style="font-size:74.54845428px;line-height:1.25;stroke-width:2.29999995;stroke-miterlimit:4;stroke-dasharray:none"
         id="path838" />
      <path
         d="m 177.30972,1018.8809 c 0,1.0437 0.82004,1.7892 1.78917,1.7892 0.96913,0 1.78916,-0.7455 1.78916,-1.7892 v -19.82985 c 0,-8.12578 -6.63481,-14.83514 -14.83514,-14.83514 -4.54746,0 -8.64762,2.08736 -11.33137,5.29294 v -3.50378 c 0,-0.96913 -0.74548,-1.78916 -1.71461,-1.78916 -1.04368,0 -1.78916,0.82003 -1.78916,1.78916 v 12.4496 0.59638 19.82985 0.4473 c 0,0 0.0745,0.075 0.0745,0.1491 0,0.075 0,0.1491 0.0746,0.2237 0.22365,0.4473 0.67094,0.82 1.19278,0.9691 h 0.44729 c 0.52184,0 1.04368,-0.2236 1.34187,-0.6709 0.22365,-0.2237 0.29819,-0.5219 0.37274,-0.8201 v -0.2982 -19.82985 c 0.1491,-6.18752 5.14385,-11.25681 11.33137,-11.25681 6.26207,0 11.25681,5.06929 11.25681,11.25681 z"
         style="font-size:74.54845428px;line-height:1.25;stroke-width:2.29999995;stroke-miterlimit:4;stroke-dasharray:none"
         id="path840" />
      <path
         d="m 226.01083,1034.1634 c 0,0.9691 0.82004,1.7891 1.78917,1.7891 1.11822,0 1.86371,-0.82 1.86371,-1.7891 v -31.1613 -0.7455 -0.7454 -15.58067 c 0,-0.96913 -0.74549,-1.78917 -1.86371,-1.78917 -0.96913,0 -1.78917,0.82004 -1.78917,1.78917 v 5.36748 c -3.20558,-4.32381 -8.27488,-7.15665 -14.01511,-7.15665 -9.61675,0 -17.51888,8.12578 -17.51888,18.11524 0,9.915 7.90213,18.1899 17.51888,18.2644 5.74023,0 10.80953,-2.9074 14.01511,-7.2312 z m -27.88112,-31.9068 c 0,-8.12574 6.26207,-14.46236 13.86601,-14.46236 7.75304,0 14.01511,6.33662 14.01511,14.46236 0,8.0513 -6.26207,14.537 -14.01511,14.6115 -7.60394,-0.075 -13.86601,-6.5602 -13.86601,-14.6115 z"
         style="font-size:74.54845428px;line-height:1.25;stroke-width:2.29999995;stroke-miterlimit:4;stroke-dasharray:none"
         id="path842" />
      <path
         d="m 245.40507,1005.7604 c 0,8.2003 6.56027,14.9097 14.7606,14.9097 8.34942,0 14.98424,-6.7094 14.98424,-14.9097 v -19.90442 c 0,-1.04368 -0.82004,-1.78917 -1.86371,-1.78917 -0.89459,0 -1.78917,0.74549 -1.78917,1.78917 v 19.90442 c 0,6.2621 -5.06929,11.2568 -11.33136,11.3314 -6.18752,-0.075 -11.18227,-5.0693 -11.18227,-11.3314 v -19.90442 c 0,-1.04368 -0.82003,-1.78917 -1.78916,-1.78917 -0.96913,0 -1.78917,0.74549 -1.78917,1.78917 z"
         style="font-size:74.54845428px;line-height:1.25;stroke-width:2.29999995;stroke-miterlimit:4;stroke-dasharray:none"
         id="path844" />
      <path
         d="m 291.94428,1018.8809 c 0,0.9692 0.82004,1.7892 1.78917,1.7892 1.04368,0 1.86371,-0.82 1.86371,-1.7892 v -32.95037 c 0,-1.04368 -0.82003,-1.78917 -1.86371,-1.78917 -0.96913,0 -1.78917,0.74549 -1.78917,1.78917 z m 0,-43.16351 c 0,1.04368 0.82004,1.93826 1.78917,1.93826 1.04368,0 1.86371,-0.89458 1.86371,-1.93826 v -1.71462 c 0,-0.96913 -0.82003,-1.78916 -1.86371,-1.78916 -0.96913,0 -1.78917,0.82003 -1.78917,1.78916 z"
         style="font-size:74.54845428px;line-height:1.25;stroke-width:2.29999995;stroke-miterlimit:4;stroke-dasharray:none"
         id="path846" />
      <path
         d="m 312.83649,1018.8809 c 0,1.0437 0.82003,1.7892 1.86371,1.7892 0.89458,0 1.71461,-0.7455 1.71461,-1.7892 v -16.0279 c 0,-0.1491 0,-0.2982 0.1491,-0.5964 0.52184,-1.4909 1.93826,-5.21836 4.39836,-8.49849 2.53465,-3.28013 5.81478,-5.96387 10.58588,-5.96387 0.96913,0 1.78916,-0.82004 1.78916,-1.78917 0,-1.04367 -0.82003,-1.78916 -1.78916,-1.78916 -7.00756,0 -11.85321,4.62201 -14.6115,8.94582 -0.22364,0.29819 -0.37274,0.59638 -0.52184,0.89458 v -8.05124 c 0,-1.04367 -0.82003,-1.78916 -1.71461,-1.78916 -1.04368,0 -1.86371,0.74549 -1.86371,1.78916 z"
         style="font-size:74.54845428px;line-height:1.25;stroke-width:2.29999995;stroke-miterlimit:4;stroke-dasharray:none"
         id="path848" />
      <path
         d="m 342.54054,1005.6859 c 0,8.2003 6.63482,14.8351 14.7606,14.9097 4.54745,0 8.57307,-2.0874 11.33136,-5.2184 v 2.3855 c -0.0745,7.5294 -6.18752,13.5678 -13.79146,13.5678 -2.08736,0 -4.17471,-0.5218 -5.96388,-1.4164 -0.89458,-0.2236 -1.86371,0 -2.311,0.8946 -0.44729,0.82 -0.0746,1.8637 0.74549,2.3855 2.311,1.0437 4.84564,1.7147 7.52939,1.7147 9.61675,0 17.36979,-7.604 17.36979,-17.1462 v -11.4059 -0.6709 -19.82992 c 0,-0.22365 -0.0745,-0.52184 -0.22365,-0.74549 -0.0746,-0.22364 -0.29819,-0.44729 -0.44729,-0.59639 -0.29819,-0.14909 -0.59638,-0.29819 -0.89458,-0.37274 h -0.22364 -0.22365 c -0.0745,0 -0.1491,0.0746 -0.22364,0.0746 h -0.1491 c -0.22365,0.0746 -0.52184,0.22365 -0.67094,0.44729 -0.0745,0 -0.0745,0.0746 -0.14909,0.0746 0,0.0746 -0.0745,0.1491 -0.0745,0.22365 -0.22365,0.22364 -0.2982,0.59638 -0.2982,0.89458 v 19.82992 c -0.0745,6.262 -5.06929,11.2568 -11.33136,11.2568 -6.18752,0 -11.18227,-4.9948 -11.18227,-11.2568 v -19.82992 c 0,-0.96913 -0.82003,-1.71462 -1.86371,-1.71462 -0.89458,0 -1.71462,0.74549 -1.71462,1.71462 z"
         style="font-size:74.54845428px;line-height:1.25;stroke-width:2.29999995;stroke-miterlimit:4;stroke-dasharray:none"
         id="path850" />
      <path
         d="m 443.15651,1018.8809 c 0,0.9692 0.82003,1.7892 1.78916,1.7892 1.04368,0 1.86372,-0.82 1.86372,-1.7892 v -48.60555 c 0,-0.96913 -0.82004,-1.78916 -1.86372,-1.78916 -0.96913,0 -1.78916,0.82003 -1.78916,1.78916 v 22.51363 h -26.83744 v -22.51363 c 0,-0.96913 -0.82003,-1.78916 -1.86371,-1.78916 -0.96913,0 -1.78917,0.82003 -1.78917,1.78916 v 48.60555 c 0,0.9692 0.82004,1.7892 1.78917,1.7892 1.04368,0 1.86371,-0.82 1.86371,-1.7892 v -22.51359 h 26.83744 z"
         style="font-size:74.54845428px;line-height:1.25;stroke-width:2.29999995;stroke-miterlimit:4;stroke-dasharray:none"
         id="path852" />
      <path
         d="m 463.95434,1005.7604 c 0,8.2003 6.56027,14.9097 14.7606,14.9097 8.34943,0 14.98424,-6.7094 14.98424,-14.9097 v -19.90442 c 0,-1.04368 -0.82004,-1.78917 -1.86371,-1.78917 -0.89459,0 -1.78917,0.74549 -1.78917,1.78917 v 19.90442 c 0,6.2621 -5.06929,11.2568 -11.33136,11.3314 -6.18752,-0.075 -11.18227,-5.0693 -11.18227,-11.3314 v -19.90442 c 0,-1.04368 -0.82003,-1.78917 -1.78916,-1.78917 -0.96913,0 -1.78917,0.74549 -1.78917,1.78917 z"
         style="font-size:74.54845428px;line-height:1.25;stroke-width:2.29999995;stroke-miterlimit:4;stroke-dasharray:none"
         id="path854" />
      <path
         d="m 510.41901,1018.8809 c 0,0.9692 0.82003,1.7892 1.78916,1.7892 1.04368,0 1.86371,-0.82 1.86371,-1.7892 v -5.2929 c 3.20558,4.3238 8.27488,7.0821 14.01511,7.0821 9.8404,0 17.66798,-8.2003 17.66798,-18.1898 0,-10.13861 -7.82758,-18.33894 -17.66798,-18.33894 -5.74023,0 -10.80953,2.83284 -14.01511,7.15665 v -21.02266 c 0,-0.96913 -0.82003,-1.78916 -1.86371,-1.78916 -0.96913,0 -1.78916,0.82003 -1.78916,1.78916 v 31.45945 0.7455 0.7455 z m 3.65287,-16.997 c 0.29819,-7.82759 6.48572,-14.08966 14.01511,-14.08966 7.75304,0 14.01511,6.56026 14.01511,14.68606 0,8.0512 -6.26207,14.5369 -14.01511,14.5369 -7.67849,0 -14.01511,-6.4857 -14.01511,-14.5369 z"
         style="font-size:74.54845428px;line-height:1.25;stroke-width:2.29999995;stroke-miterlimit:4;stroke-dasharray:none"
         id="path856" />
    </g>
  </g>
</svg>
